{
  "accessors": [
    {
      "bufferView": 2,
      "componentType": 5126,
      "count": 10677,
      "max": [
        3120.507080078125,
        3670.1484375,
        48006.0
      ],
      "min": [
        -4880.32177734375,
        -4945.93212890625,
        -4.073337189183159e-18
      ],
      "type": "VEC3"
    },
    {
      "bufferView": 2,
      "byteOffset": 128124,
      "componentType": 5126,
      "count": 10677,
      "max": [
        0.9999043345451355,
        1.0,
        1.0
      ],
      "min": [
        -0.9999677538871765,
        -1.0,
        -1.0
      ],
      "type": "VEC3"
    },
    {
      "bufferView": 1,
      "componentType": 5126,
      "count": 10677,
      "max": [
        350.1608581542969,
        700.7078857421875
      ],
      "min": [
        -350.1608581542969,
        -643.8781127929688
      ],
      "type": "VEC2"
    },
    {
      "bufferView": 1,
      "byteOffset": 85416,
      "componentType": 5126,
      "count": 10677,
      "max": [
        350.1608581542969,
        700.7078857421875
      ],
      "min": [
        -350.1608581542969,
        -643.8781127929688
      ],
      "type": "VEC2"
    },
    {
      "bufferView": 0,
      "componentType": 5125,
      "count": 21099,
      "type": "SCALAR"
    },
    {
      "bufferView": 2,
      "byteOffset": 256248,
      "componentType": 5126,
      "count": 2967,
      "max": [
        3041.7431640625,
        3509.707275390625,
        46177.19921875
      ],
      "min": [
        -4500.5751953125,
        -4747.763671875,
        914.4000244140625
      ],
      "type": "VEC3"
    },
    {
      "bufferView": 2,
      "byteOffset": 291852,
      "componentType": 5126,
      "count": 2967,
      "max": [
        0.99985271692276,
        0.9999614953994751,
        1.0
      ],
      "min": [
        -0.9996705055236816,
        -0.9999004006385803,
        -1.0
      ],
      "type": "VEC3"
    },
    {
      "bufferView": 1,
      "byteOffset": 170832,
      "componentType": 5126,
      "count": 2967,
      "max": [
        -43.73011016845703,
        101.0
      ],
      "min": [
        -134.20413208007813,
        2.0
      ],
      "type": "VEC2"
    },
    {
      "bufferView": 1,
      "byteOffset": 194568,
      "componentType": 5126,
      "count": 2967,
      "max": [
        -43.73011016845703,
        101.0
      ],
      "min": [
        -134.20413208007813,
        2.0
      ],
      "type": "VEC2"
    },
    {
      "bufferView": 0,
      "byteOffset": 84396,
      "componentType": 5125,
      "count": 11358,
      "type": "SCALAR"
    },
    {
      "bufferView": 2,
      "byteOffset": 327456,
      "componentType": 5126,
      "count": 3401,
      "max": [
        3469.430908203125,
        2926.002685546875,
        47640.23828125
      ],
      "min": [
        -4193.07666015625,
        -4679.443359375,
        868.6799926757813
      ],
      "type": "VEC3"
    },
    {
      "bufferView": 2,
      "byteOffset": 368268,
      "componentType": 5126,
      "count": 3401,
      "max": [
        0.9999996423721313,
        0.9999873042106628,
        1.0
      ],
      "min": [
        -0.9999996423721313,
        -0.9999767541885376,
        -1.0
      ],
      "type": "VEC3"
    },
    {
      "bufferView": 1,
      "byteOffset": 218304,
      "componentType": 5126,
      "count": 3401,
      "max": [
        312.1920471191406,
        4.9529595375061035
      ],
      "min": [
        -312.1920471191406,
        -217.95664978027344
      ],
      "type": "VEC2"
    },
    {
      "bufferView": 1,
      "byteOffset": 245512,
      "componentType": 5126,
      "count": 3401,
      "max": [
        312.1920471191406,
        4.9529595375061035
      ],
      "min": [
        -312.1920471191406,
        -217.95664978027344
      ],
      "type": "VEC2"
    },
    {
      "bufferView": 0,
      "byteOffset": 129828,
      "componentType": 5125,
      "count": 7437,
      "type": "SCALAR"
    },
    {
      "bufferView": 2,
      "byteOffset": 409080,
      "componentType": 5126,
      "count": 2120,
      "max": [
        1804.4281005859375,
        1871.80517578125,
        47792.640625
      ],
      "min": [
        -2635.85498046875,
        -2980.193603515625,
        47091.6015625
      ],
      "type": "VEC3"
    },
    {
      "bufferView": 2,
      "byteOffset": 434520,
      "componentType": 5126,
      "count": 2120,
      "max": [
        0.9999574422836304,
        0.9998945593833923,
        1.0
      ],
      "min": [
        -0.9999573826789856,
        -0.999988317489624,
        -1.0
      ],
      "type": "VEC3"
    },
    {
      "bufferView": 1,
      "byteOffset": 272720,
      "componentType": 5126,
      "count": 2120,
      "max": [
        71.2177505493164,
        1.7777777910232544
      ],
      "min": [
        -121.66944122314453,
        -132.9414520263672
      ],
      "type": "VEC2"
    },
    {
      "bufferView": 1,
      "byteOffset": 289680,
      "componentType": 5126,
      "count": 2120,
      "max": [
        71.2177505493164,
        1.7777777910232544
      ],
      "min": [
        -121.66944122314453,
        -132.9414520263672
      ],
      "type": "VEC2"
    },
    {
      "bufferView": 0,
      "byteOffset": 159576,
      "componentType": 5125,
      "count": 4110,
      "type": "SCALAR"
    },
    {
      "bufferView": 2,
      "byteOffset": 459960,
      "componentType": 5126,
      "count": 1421,
      "max": [
        3102.17919921875,
        3670.1484375,
        48006.0
      ],
      "min": [
        -4880.32177734375,
        -4945.93212890625,
        -4.073337189183159e-18
      ],
      "type": "VEC3"
    },
    {
      "bufferView": 2,
      "byteOffset": 477012,
      "componentType": 5126,
      "count": 1421,
      "max": [
        0.9999717473983765,
        0.9999973773956299,
        1.0
      ],
      "min": [
        -0.9998013377189636,
        -0.999842643737793,
        -1.0
      ],
      "type": "VEC3"
    },
    {
      "bufferView": 1,
      "byteOffset": 306640,
      "componentType": 5126,
      "count": 1421,
      "max": [
        1730.6817626953125,
        1287.4571533203125
      ],
      "min": [
        -1119.9056396484375,
        -1774.3902587890625
      ],
      "type": "VEC2"
    },
    {
      "bufferView": 1,
      "byteOffset": 318008,
      "componentType": 5126,
      "count": 1421,
      "max": [
        1730.6817626953125,
        1287.4571533203125
      ],
      "min": [
        -1119.9056396484375,
        -1774.3902587890625
      ],
      "type": "VEC2"
    },
    {
      "bufferView": 0,
      "byteOffset": 176016,
      "componentType": 5125,
      "count": 5007,
      "type": "SCALAR"
    },
    {
      "bufferView": 2,
      "byteOffset": 494064,
      "componentType": 5126,
      "count": 297,
      "max": [
        2784.985107421875,
        3134.68212890625,
        853.4400024414063
      ],
      "min": [
        -4046.4375,
        -4336.19970703125,
        -4.073337189183159e-18
      ],
      "type": "VEC3"
    },
    {
      "bufferView": 2,
      "byteOffset": 497628,
      "componentType": 5126,
      "count": 297,
      "max": [
        0.999754011631012,
        0.9893605709075928,
        -0.00886464212089777
      ],
      "min": [
        -0.7842044830322266,
        -0.9534167647361755,
        -0.029064835980534554
      ],
      "type": "VEC3"
    },
    {
      "bufferView": 1,
      "byteOffset": 329376,
      "componentType": 5126,
      "count": 297,
      "max": [
        17.7773380279541,
        3.4673612117767334
      ],
      "min": [
        -18.791091918945313,
        1.6006944179534912
      ],
      "type": "VEC2"
    },
    {
      "bufferView": 1,
      "byteOffset": 331752,
      "componentType": 5126,
      "count": 297,
      "max": [
        17.7773380279541,
        3.4673612117767334
      ],
      "min": [
        -18.791091918945313,
        1.6006944179534912
      ],
      "type": "VEC2"
    },
    {
      "bufferView": 0,
      "byteOffset": 196044,
      "componentType": 5125,
      "count": 873,
      "type": "SCALAR"
    },
    {
      "bufferView": 2,
      "byteOffset": 501192,
      "componentType": 5126,
      "count": 404,
      "max": [
        3438.680908203125,
        2895.475830078125,
        47396.3984375
      ],
      "min": [
        -4162.5830078125,
        -4648.9541015625,
        899.1599731445313
      ],
      "type": "VEC3"
    },
    {
      "bufferView": 2,
      "byteOffset": 506040,
      "componentType": 5126,
      "count": 404,
      "max": [
        0.0,
        0.0,
        1.0
      ],
      "min": [
        0.0,
        0.0,
        -1.0
      ],
      "type": "VEC3"
    },
    {
      "bufferView": 1,
      "byteOffset": 334128,
      "componentType": 5126,
      "count": 404,
      "max": [
        6.5102009773254395,
        3.2065703868865967
      ],
      "min": [
        -7.3083415031433105,
        -20.64345932006836
      ],
      "type": "VEC2"
    },
    {
      "bufferView": 1,
      "byteOffset": 337360,
      "componentType": 5126,
      "count": 404,
      "max": [
        6.5102009773254395,
        3.2065703868865967
      ],
      "min": [
        -7.3083415031433105,
        -20.64345932006836
      ],
      "type": "VEC2"
    },
    {
      "bufferView": 0,
      "byteOffset": 199536,
      "componentType": 5125,
      "count": 846,
      "type": "SCALAR"
    },
    {
      "bufferView": 2,
      "byteOffset": 510888,
      "componentType": 5126,
      "count": 369,
      "max": [
        2389.122314453125,
        2563.7177734375,
        48006.0
      ],
      "min": [
        -3355.027099609375,
        -3709.605712890625,
        46177.19921875
      ],
      "type": "VEC3"
    },
    {
      "bufferView": 2,
      "byteOffset": 515316,
      "componentType": 5126,
      "count": 369,
      "max": [
        0.9996989369392395,
        0.9892768263816833,
        0.05137084424495697
      ],
      "min": [
        -0.7841382622718811,
        -0.9533362984657288,
        0.015746857970952988
      ],
      "type": "VEC3"
    },
    {
      "bufferView": 1,
      "byteOffset": 340592,
      "componentType": 5126,
      "count": 369,
      "max": [
        -49.794334411621094,
        208.0
      ],
      "min": [
        -79.22686004638672,
        200.0
      ],
      "type": "VEC2"
    },
    {
      "bufferView": 1,
      "byteOffset": 343544,
      "componentType": 5126,
      "count": 369,
      "max": [
        -49.794334411621094,
        208.0
      ],
      "min": [
        -79.22686004638672,
        200.0
      ],
      "type": "VEC2"
    },
    {
      "bufferView": 0,
      "byteOffset": 202920,
      "componentType": 5125,
      "count": 1404,
      "type": "SCALAR"
    },
    {
      "bufferView": 2,
      "byteOffset": 519744,
      "componentType": 5126,
      "count": 84,
      "max": [
        845.745849609375,
        417.9365539550781,
        47792.640625
      ],
      "min": [
        -610.284423828125,
        -1011.2885131835938,
        47792.640625
      ],
      "type": "VEC3"
    },
    {
      "bufferView": 2,
      "byteOffset": 520752,
      "componentType": 5126,
      "count": 84,
      "max": [
        0.0,
        0.0,
        1.0
      ],
      "min": [
        0.0,
        0.0,
        0.9999999403953552
      ],
      "type": "VEC3"
    },
    {
      "bufferView": 1,
      "byteOffset": 346496,
      "componentType": 5126,
      "count": 84,
      "max": [
        -196.41590881347656,
        -962.0735473632813
      ],
      "min": [
        -209.849609375,
        -987.0609130859375
      ],
      "type": "VEC2"
    },
    {
      "bufferView": 1,
      "byteOffset": 347168,
      "componentType": 5126,
      "count": 84,
      "max": [
        -196.41590881347656,
        -962.0735473632813
      ],
      "min": [
        -209.849609375,
        -987.0609130859375
      ],
      "type": "VEC2"
    },
    {
      "bufferView": 0,
      "byteOffset": 208536,
      "componentType": 5125,
      "count": 204,
      "type": "SCALAR"
    },
    {
      "bufferView": 2,
      "byteOffset": 521760,
      "componentType": 5126,
      "count": 10913,
      "max": [
        3120.507080078125,
        3665.19287109375,
        48006.0
      ],
      "min": [
        -4671.79248046875,
        -4912.9404296875,
        -4.073337189183159e-18
      ],
      "type": "VEC3"
    },
    {
      "bufferView": 2,
      "byteOffset": 652716,
      "componentType": 5126,
      "count": 10913,
      "max": [
        0.9999717473983765,
        0.9998016953468323,
        1.0
      ],
      "min": [
        -0.9999677538871765,
        -0.9901365041732788,
        -1.0
      ],
      "type": "VEC3"
    },
    {
      "bufferView": 1,
      "byteOffset": 347840,
      "componentType": 5126,
      "count": 10913,
      "max": [
        1730.6817626953125,
        1287.4571533203125
      ],
      "min": [
        -1119.9056396484375,
        -1774.3902587890625
      ],
      "type": "VEC2"
    },
    {
      "bufferView": 1,
      "byteOffset": 435144,
      "componentType": 5126,
      "count": 10913,
      "max": [
        1730.6817626953125,
        1287.4571533203125
      ],
      "min": [
        -1119.9056396484375,
        -1774.3902587890625
      ],
      "type": "VEC2"
    },
    {
      "bufferView": 0,
      "byteOffset": 209352,
      "componentType": 5125,
      "count": 23523,
      "type": "SCALAR"
    },
    {
      "bufferView": 2,
      "byteOffset": 783672,
      "componentType": 5126,
      "count": 7971,
      "max": [
        3469.430908203125,
        3509.771240234375,
        47792.640625
      ],
      "min": [
        -4500.65283203125,
        -4747.833984375,
        868.6799926757813
      ],
      "type": "VEC3"
    },
    {
      "bufferView": 2,
      "byteOffset": 879324,
      "componentType": 5126,
      "count": 7971,
      "max": [
        0.9999996423721313,
        0.9999873042106628,
        1.0
      ],
      "min": [
        -0.9999996423721313,
        -0.999988317489624,
        -1.0
      ],
      "type": "VEC3"
    },
    {
      "bufferView": 1,
      "byteOffset": 522448,
      "componentType": 5126,
      "count": 7971,
      "max": [
        36.85942077636719,
        257.75341796875
      ],
      "min": [
        -36.7263298034668,
        -30.992116928100586
      ],
      "type": "VEC2"
    },
    {
      "bufferView": 1,
      "byteOffset": 586216,
      "componentType": 5126,
      "count": 7971,
      "max": [
        36.85942077636719,
        257.75341796875
      ],
      "min": [
        -36.7263298034668,
        -30.992116928100586
      ],
      "type": "VEC2"
    },
    {
      "bufferView": 0,
      "byteOffset": 303444,
      "componentType": 5125,
      "count": 17943,
      "type": "SCALAR"
    },
    {
      "bufferView": 2,
      "byteOffset": 974976,
      "componentType": 5126,
      "count": 2744,
      "max": [
        2108.786865234375,
        2264.8544921875,
        47122.078125
      ],
      "min": [
        -3238.976318359375,
        -3444.326904296875,
        47091.6015625
      ],
      "type": "VEC3"
    },
    {
      "bufferView": 2,
      "byteOffset": 1007904,
      "componentType": 5126,
      "count": 2744,
      "max": [
        0.9998528361320496,
        1.0,
        0.0
      ],
      "min": [
        -0.9998527765274048,
        -1.0,
        -1.0
      ],
      "type": "VEC3"
    },
    {
      "bufferView": 1,
      "byteOffset": 649984,
      "componentType": 5126,
      "count": 2744,
      "max": [
        106.32950592041016,
        0.08888889104127884
      ],
      "min": [
        -29.646038055419922,
        -118.42399597167969
      ],
      "type": "VEC2"
    },
    {
      "bufferView": 1,
      "byteOffset": 671936,
      "componentType": 5126,
      "count": 2744,
      "max": [
        106.32950592041016,
        0.08888889104127884
      ],
      "min": [
        -29.646038055419922,
        -118.42399597167969
      ],
      "type": "VEC2"
    },
    {
      "bufferView": 0,
      "byteOffset": 375216,
      "componentType": 5125,
      "count": 4968,
      "type": "SCALAR"
    },
    {
      "bufferView": 2,
      "byteOffset": 1040832,
      "componentType": 5126,
      "count": 1038,
      "max": [
        3102.17919921875,
        3670.1484375,
        48006.0
      ],
      "min": [
        -4880.32177734375,
        -4945.93212890625,
        -4.073337189183159e-18
      ],
      "type": "VEC3"
    },
    {
      "bufferView": 2,
      "byteOffset": 1053288,
      "componentType": 5126,
      "count": 1038,
      "max": [
        0.9537331461906433,
        0.999998927116394,
        0.07010077685117722
      ],
      "min": [
        -0.9997859597206116,
        -0.9998289346694946,
        -0.03952163830399513
      ],
      "type": "VEC3"
    },
    {
      "bufferView": 1,
      "byteOffset": 693888,
      "componentType": 5126,
      "count": 1038,
      "max": [
        -239.760009765625,
        105.0
      ],
      "min": [
        -249.01670837402344,
        -1.0105496931064276e-14
      ],
      "type": "VEC2"
    },
    {
      "bufferView": 1,
      "byteOffset": 702192,
      "componentType": 5126,
      "count": 1038,
      "max": [
        -239.760009765625,
        105.0
      ],
      "min": [
        -249.01670837402344,
        -1.0105496931064276e-14
      ],
      "type": "VEC2"
    },
    {
      "bufferView": 0,
      "byteOffset": 395088,
      "componentType": 5125,
      "count": 5400,
      "type": "SCALAR"
    },
    {
      "bufferView": 2,
      "byteOffset": 1065744,
      "componentType": 5126,
      "count": 404,
      "max": [
        3438.680908203125,
        2895.475830078125,
        47396.3984375
      ],
      "min": [
        -4162.5830078125,
        -4648.9541015625,
        899.1599731445313
      ],
      "type": "VEC3"
    },
    {
      "bufferView": 2,
      "byteOffset": 1070592,
      "componentType": 5126,
      "count": 404,
      "max": [
        0.0,
        0.0,
        1.0
      ],
      "min": [
        0.0,
        0.0,
        -1.0
      ],
      "type": "VEC3"
    },
    {
      "bufferView": 1,
      "byteOffset": 710496,
      "componentType": 5126,
      "count": 404,
      "max": [
        6.5102009773254395,
        3.2065703868865967
      ],
      "min": [
        -7.3083415031433105,
        -20.64345932006836
      ],
      "type": "VEC2"
    },
    {
      "bufferView": 1,
      "byteOffset": 713728,
      "componentType": 5126,
      "count": 404,
      "max": [
        6.5102009773254395,
        3.2065703868865967
      ],
      "min": [
        -7.3083415031433105,
        -20.64345932006836
      ],
      "type": "VEC2"
    },
    {
      "bufferView": 0,
      "byteOffset": 416688,
      "componentType": 5125,
      "count": 846,
      "type": "SCALAR"
    },
    {
      "bufferView": 2,
      "byteOffset": 1075440,
      "componentType": 5126,
      "count": 369,
      "max": [
        2389.122314453125,
        2563.7177734375,
        48006.0
      ],
      "min": [
        -3355.027099609375,
        -3709.605712890625,
        46177.19921875
      ],
      "type": "VEC3"
    },
    {
      "bufferView": 2,
      "byteOffset": 1079868,
      "componentType": 5126,
      "count": 369,
      "max": [
        0.9996989369392395,
        0.9892768263816833,
        0.05137084424495697
      ],
      "min": [
        -0.7841382622718811,
        -0.9533362984657288,
        0.015746857970952988
      ],
      "type": "VEC3"
    },
    {
      "bufferView": 1,
      "byteOffset": 716960,
      "componentType": 5126,
      "count": 369,
      "max": [
        -49.794334411621094,
        208.0
      ],
      "min": [
        -79.22686004638672,
        200.0
      ],
      "type": "VEC2"
    },
    {
      "bufferView": 1,
      "byteOffset": 719912,
      "componentType": 5126,
      "count": 369,
      "max": [
        -49.794334411621094,
        208.0
      ],
      "min": [
        -79.22686004638672,
        200.0
      ],
      "type": "VEC2"
    },
    {
      "bufferView": 0,
      "byteOffset": 420072,
      "componentType": 5125,
      "count": 1404,
      "type": "SCALAR"
    },
    {
      "bufferView": 2,
      "byteOffset": 1084296,
      "componentType": 5126,
      "count": 2099,
      "max": [
        3036.0859375,
        3501.544921875,
        47701.19921875
      ],
      "min": [
        -4490.69091796875,
        -4738.80615234375,
        16002.0
      ],
      "type": "VEC3"
    },
    {
      "bufferView": 2,
      "byteOffset": 1109484,
      "componentType": 5126,
      "count": 2099,
      "max": [
        0.0,
        0.0,
        1.0
      ],
      "min": [
        0.0,
        0.0,
        -1.0
      ],
      "type": "VEC3"
    },
    {
      "bufferView": 1,
      "byteOffset": 722864,
      "componentType": 5126,
      "count": 2099,
      "max": [
        1445.134765625,
        1378.5609130859375
      ],
      "min": [
        -1767.988525390625,
        -1865.671630859375
      ],
      "type": "VEC2"
    },
    {
      "bufferView": 0,
      "byteOffset": 425688,
      "componentType": 5125,
      "count": 6768,
      "type": "SCALAR"
    },
    {
      "bufferView": 2,
      "byteOffset": 1134672,
      "componentType": 5126,
      "count": 4,
      "max": [
        6565.44775390625,
        5734.55615234375,
        0.0
      ],
      "min": [
        -6565.51513671875,
        -5734.54345703125,
        0.0
      ],
      "type": "VEC3"
    },
    {
      "bufferView": 2,
      "byteOffset": 1134720,
      "componentType": 5126,
      "count": 4,
      "max": [
        0.0,
        0.0,
        1.0
      ],
      "min": [
        0.0,
        0.0,
        1.0
      ],
      "type": "VEC3"
    },
    {
      "bufferView": 1,
      "byteOffset": 739656,
      "componentType": 5126,
      "count": 4,
      "max": [
        0.9396976828575134,
        0.5924209356307983
      ],
      "min": [
        0.4533073902130127,
        0.37994879484176636
      ],
      "type": "VEC2"
    },
    {
      "bufferView": 1,
      "byteOffset": 739688,
      "componentType": 5126,
      "count": 4,
      "max": [
        0.9396976828575134,
        0.5924209356307983
      ],
      "min": [
        0.4533073902130127,
        0.37994879484176636
      ],
      "type": "VEC2"
    },
    {
      "bufferView": 0,
      "byteOffset": 452760,
      "componentType": 5125,
      "count": 6,
      "type": "SCALAR"
    },
    {
      "bufferView": 2,
      "byteOffset": 1134768,
      "componentType": 5126,
      "count": 4,
      "max": [
        6565.44775390625,
        5734.55615234375,
        0.0
      ],
      "min": [
        -6565.51513671875,
        -5734.54345703125,
        0.0
      ],
      "type": "VEC3"
    },
    {
      "bufferView": 2,
      "byteOffset": 1134816,
      "componentType": 5126,
      "count": 4,
      "max": [
        0.0,
        0.0,
        1.0
      ],
      "min": [
        0.0,
        0.0,
        1.0
      ],
      "type": "VEC3"
    },
    {
      "bufferView": 1,
      "byteOffset": 739720,
      "componentType": 5126,
      "count": 4,
      "max": [
        2584.822021484375,
        2257.699462890625
      ],
      "min": [
        -2584.848388671875,
        -2257.6943359375
      ],
      "type": "VEC2"
    },
    {
      "bufferView": 0,
      "byteOffset": 452784,
      "componentType": 5125,
      "count": 6,
      "type": "SCALAR"
    }
  ],
  "asset": {
    "extras": {
      "author": "Void (https://sketchfab.com/Void.com)",
      "license": "CC-BY-4.0 (http://creativecommons.org/licenses/by/4.0/)",
      "source": "https://sketchfab.com/3d-models/wuhan-greenland-center-795a3cec308d44a985dacfda99239a3e",
      "title": "Wuhan+ Greenland+ Center"
    },
    "generator": "Sketchfab-0.12.0",
    "version": "2.0"
  },
  "bufferViews": [
    {
      "buffer": 0,
      "byteLength": 452808,
      "name": "floatBufferViews",
      "target": 34963
    },
    {
      "buffer": 0,
      "byteLength": 739752,
      "byteOffset": 452808,
      "byteStride": 8,
      "name": "floatBufferViews",
      "target": 34962
    },
    {
      "buffer": 0,
      "byteLength": 1134864,
      "byteOffset": 1192560,
      "byteStride": 12,
      "name": "floatBufferViews",
      "target": 34962
    }
  ],
  "buffers": [
    {
      "byteLength": 2327424,
      "uri": "scene.bin"
    }
  ],
  "images": [
    {
      "uri": "textures/TextureMaterial_baseColor.png"
    },
    {
      "uri": "textures/TextureMaterial_1_baseColor.jpeg"
    },
    {
      "uri": "textures/TextureMaterial_2_baseColor.png"
    },
    {
      "uri": "textures/TextureMaterial_3_baseColor.png"
    },
    {
      "uri": "textures/TextureMaterial_4_baseColor.jpeg"
    },
    {
      "uri": "textures/TextureMaterial_5_baseColor.jpeg"
    },
    {
      "uri": "textures/TextureMaterial_6_baseColor.png"
    },
    {
      "uri": "textures/TextureMaterial_7_baseColor.jpeg"
    },
    {
      "uri": "textures/TextureMaterial_8_baseColor.png"
    },
    {
      "uri": "textures/TextureMaterial_0_baseColor.jpeg"
    }
  ],
  "materials": [
    {
      "name": "RGBAMaterial_066666669_066666669_066666669_100000000",
      "pbrMetallicRoughness": {
        "baseColorFactor": [
          0.666667,
          0.666667,
          0.666667,
          1.0
        ],
        "metallicFactor": 0.0,
        "roughnessFactor": 0.5
      }
    },
    {
      "name": "TextureMaterial",
      "pbrMetallicRoughness": {
        "baseColorTexture": {
          "index": 0
        },
        "metallicFactor": 0.0,
        "roughnessFactor": 0.5
      }
    },
    {
      "name": "TextureMaterial_1",
      "pbrMetallicRoughness": {
        "baseColorTexture": {
          "index": 1
        },
        "metallicFactor": 0.0,
        "roughnessFactor": 0.5
      }
    },
    {
      "name": "TextureMaterial_2",
      "pbrMetallicRoughness": {
        "baseColorTexture": {
          "index": 2
        },
        "metallicFactor": 0.0,
        "roughnessFactor": 0.5
      }
    },
    {
      "name": "TextureMaterial_3",
      "pbrMetallicRoughness": {
        "baseColorTexture": {
          "index": 3
        },
        "metallicFactor": 0.0,
        "roughnessFactor": 0.5
      }
    },
    {
      "name": "TextureMaterial_4",
      "pbrMetallicRoughness": {
        "baseColorTexture": {
          "index": 4
        },
        "metallicFactor": 0.0,
        "roughnessFactor": 0.5
      }
    },
    {
      "name": "TextureMaterial_5",
      "pbrMetallicRoughness": {
        "baseColorTexture": {
          "index": 5
        },
        "metallicFactor": 0.0,
        "roughnessFactor": 0.5
      }
    },
    {
      "alphaMode": "BLEND",
      "name": "TextureMaterial_6",
      "pbrMetallicRoughness": {
        "baseColorTexture": {
          "index": 6
        },
        "metallicFactor": 0.0,
        "roughnessFactor": 0.5
      }
    },
    {
      "name": "TextureMaterial_7",
      "pbrMetallicRoughness": {
        "baseColorTexture": {
          "index": 7
        },
        "metallicFactor": 0.0,
        "roughnessFactor": 0.5
      }
    },
    {
      "name": "TextureMaterial_8",
      "pbrMetallicRoughness": {
        "baseColorTexture": {
          "index": 8
        },
        "metallicFactor": 0.0,
        "roughnessFactor": 0.5
      }
    },
    {
      "name": "TextureMaterial_0",
      "pbrMetallicRoughness": {
        "baseColorTexture": {
          "index": 9
        },
        "metallicFactor": 0.0,
        "roughnessFactor": 0.5
      }
    },
    {
      "name": "RGBAMaterial_000000000_000000000_000000000_100000000",
      "pbrMetallicRoughness": {
        "baseColorFactor": [
          0.0,
          0.0,
          0.0,
          1.0
        ],
        "metallicFactor": 0.0,
        "roughnessFactor": 0.5
      }
    }
  ],
  "meshes": [
    {
      "name": "FrontSide_1",
      "primitives": [
        {
          "attributes": {
            "NORMAL": 1,
            "POSITION": 0,
            "TEXCOORD_0": 2,
            "TEXCOORD_1": 3
          },
          "indices": 4,
          "material": 1,
          "mode": 4
        }
      ]
    },
    {
      "name": "FrontSide_2",
      "primitives": [
        {
          "attributes": {
            "NORMAL": 6,
            "POSITION": 5,
            "TEXCOORD_0": 7,
            "TEXCOORD_1": 8
          },
          "indices": 9,
          "material": 2,
          "mode": 4
        }
      ]
    },
    {
      "name": "FrontSide_3",
      "primitives": [
        {
          "attributes": {
            "NORMAL": 11,
            "POSITION": 10,
            "TEXCOORD_0": 12,
            "TEXCOORD_1": 13
          },
          "indices": 14,
          "material": 3,
          "mode": 4
        }
      ]
    },
    {
      "name": "FrontSide_4",
      "primitives": [
        {
          "attributes": {
            "NORMAL": 16,
            "POSITION": 15,
            "TEXCOORD_0": 17,
            "TEXCOORD_1": 18
          },
          "indices": 19,
          "material": 4,
          "mode": 4
        }
      ]
    },
    {
      "name": "FrontSide_5",
      "primitives": [
        {
          "attributes": {
            "NORMAL": 21,
            "POSITION": 20,
            "TEXCOORD_0": 22,
            "TEXCOORD_1": 23
          },
          "indices": 24,
          "material": 5,
          "mode": 4
        }
      ]
    },
    {
      "name": "FrontSide_6",
      "primitives": [
        {
          "attributes": {
            "NORMAL": 26,
            "POSITION": 25,
            "TEXCOORD_0": 27,
            "TEXCOORD_1": 28
          },
          "indices": 29,
          "material": 6,
          "mode": 4
        }
      ]
    },
    {
      "name": "FrontSide_7",
      "primitives": [
        {
          "attributes": {
            "NORMAL": 31,
            "POSITION": 30,
            "TEXCOORD_0": 32,
            "TEXCOORD_1": 33
          },
          "indices": 34,
          "material": 7,
          "mode": 4
        }
      ]
    },
    {
      "name": "FrontSide_8",
      "primitives": [
        {
          "attributes": {
            "NORMAL": 36,
            "POSITION": 35,
            "TEXCOORD_0": 37,
            "TEXCOORD_1": 38
          },
          "indices": 39,
          "material": 8,
          "mode": 4
        }
      ]
    },
    {
      "name": "FrontSide_9",
      "primitives": [
        {
          "attributes": {
            "NORMAL": 41,
            "POSITION": 40,
            "TEXCOORD_0": 42,
            "TEXCOORD_1": 43
          },
          "indices": 44,
          "material": 9,
          "mode": 4
        }
      ]
    },
    {
      "name": "BackSide_1",
      "primitives": [
        {
          "attributes": {
            "NORMAL": 46,
            "POSITION": 45,
            "TEXCOORD_0": 47,
            "TEXCOORD_1": 48
          },
          "indices": 49,
          "material": 1,
          "mode": 4
        }
      ]
    },
    {
      "name": "BackSide_2",
      "primitives": [
        {
          "attributes": {
            "NORMAL": 51,
            "POSITION": 50,
            "TEXCOORD_0": 52,
            "TEXCOORD_1": 53
          },
          "indices": 54,
          "material": 3,
          "mode": 4
        }
      ]
    },
    {
      "name": "BackSide_3",
      "primitives": [
        {
          "attributes": {
            "NORMAL": 56,
            "POSITION": 55,
            "TEXCOORD_0": 57,
            "TEXCOORD_1": 58
          },
          "indices": 59,
          "material": 4,
          "mode": 4
        }
      ]
    },
    {
      "name": "BackSide_4",
      "primitives": [
        {
          "attributes": {
            "NORMAL": 61,
            "POSITION": 60,
            "TEXCOORD_0": 62,
            "TEXCOORD_1": 63
          },
          "indices": 64,
          "material": 5,
          "mode": 4
        }
      ]
    },
    {
      "name": "BackSide_5",
      "primitives": [
        {
          "attributes": {
            "NORMAL": 66,
            "POSITION": 65,
            "TEXCOORD_0": 67,
            "TEXCOORD_1": 68
          },
          "indices": 69,
          "material": 7,
          "mode": 4
        }
      ]
    },
    {
      "name": "BackSide_6",
      "primitives": [
        {
          "attributes": {
            "NORMAL": 71,
            "POSITION": 70,
            "TEXCOORD_0": 72,
            "TEXCOORD_1": 73
          },
          "indices": 74,
          "material": 8,
          "mode": 4
        }
      ]
    },
    {
      "name": "FrontSide_0",
      "primitives": [
        {
          "attributes": {
            "NORMAL": 76,
            "POSITION": 75,
            "TEXCOORD_0": 77
          },
          "indices": 78,
          "material": 0,
          "mode": 4
        }
      ]
    },
    {
      "name": "FrontSide_0",
      "primitives": [
        {
          "attributes": {
            "NORMAL": 80,
            "POSITION": 79,
            "TEXCOORD_0": 81,
            "TEXCOORD_1": 82
          },
          "indices": 83,
          "material": 10,
          "mode": 4
        }
      ]
    },
    {
      "name": "BackSide_0",
      "primitives": [
        {
          "attributes": {
            "NORMAL": 85,
            "POSITION": 84,
            "TEXCOORD_0": 86
          },
          "indices": 87,
          "material": 11,
          "mode": 4
        }
      ]
    }
  ],
  "nodes": [
    {
      "children": [
        1
      ],
      "matrix": [
        1.0,
        0.0,
        0.0,
        0.0,
        0.0,
        2.220446049250313e-16,
        -1.0,
        0.0,
        0.0,
        1.0,
        2.220446049250313e-16,
        0.0,
        0.0,
        0.0,
        0.0,
        1.0
      ],
      "name": "Sketchfab_model"
    },
    {
      "children": [
        2
      ],
      "matrix": [
        0.009999999776482582,
        0.0,
        0.0,
        0.0,
        0.0,
        0.009999999776482582,
        0.0,
        0.0,
        0.0,
        0.0,
        0.009999999776482582,
        0.0,
        0.0,
        0.0,
        0.0,
        1.0
      ],
      "name": "USDRoot"
    },
    {
      "children": [
        3
      ],
      "name": "model"
    },
    {
      "children": [
        4,
        5,
        6,
        7,
        8,
        9,
        10,
        11,
        12,
        13,
        14,
        15,
        16,
        17,
        18,
        19,
        20
      ],
      "name": "Geom"
    },
    {
      "mesh": 0,
      "name": "FrontSide_1"
    },
    {
      "mesh": 1,
      "name": "FrontSide_2"
    },
    {
      "mesh": 2,
      "name": "FrontSide_3"
    },
    {
      "mesh": 3,
      "name": "FrontSide_4"
    },
    {
      "mesh": 4,
      "name": "FrontSide_5"
    },
    {
      "mesh": 5,
      "name": "FrontSide_6"
    },
    {
      "mesh": 6,
      "name": "FrontSide_7"
    },
    {
      "mesh": 7,
      "name": "FrontSide_8"
    },
    {
      "mesh": 8,
      "name": "FrontSide_9"
    },
    {
      "mesh": 9,
      "name": "BackSide_1"
    },
    {
      "mesh": 10,
      "name": "BackSide_2"
    },
    {
      "mesh": 11,
      "name": "BackSide_3"
    },
    {
      "mesh": 12,
      "name": "BackSide_4"
    },
    {
      "mesh": 13,
      "name": "BackSide_5"
    },
    {
      "mesh": 14,
      "name": "BackSide_6"
    },
    {
      "mesh": 15,
      "name": "FrontSide_0"
    },
    {
      "children": [
        21,
        22
      ],
      "name": "Location_Snapshot"
    },
    {
      "mesh": 16,
      "name": "FrontSide_0"
    },
    {
      "mesh": 17,
      "name": "BackSide_0"
    }
  ],
  "samplers": [
    {
      "magFilter": 9729,
      "minFilter": 9987,
      "wrapS": 10497,
      "wrapT": 10497
    }
  ],
  "scene": 0,
  "scenes": [
    {
      "name": "Sketchfab_Scene",
      "nodes": [
        0
      ]
    }
  ],
  "textures": [
    {
      "sampler": 0,
      "source": 0
    },
    {
      "sampler": 0,
      "source": 1
    },
    {
      "sampler": 0,
      "source": 2
    },
    {
      "sampler": 0,
      "source": 3
    },
    {
      "sampler": 0,
      "source": 4
    },
    {
      "sampler": 0,
      "source": 5
    },
    {
      "sampler": 0,
      "source": 6
    },
    {
      "sampler": 0,
      "source": 7
    },
    {
      "sampler": 0,
      "source": 8
    },
    {
      "sampler": 0,
      "source": 9
    }
  ]
}
