{
  "accessors": [
    {
      "bufferView": 2,
      "componentType": 5126,
      "count": 4,
      "max": [
        11368.16015625,
        8226.2744140625,
        0.0
      ],
      "min": [
        -11368.5869140625,
        -8226.1083984375,
        0.0
      ],
      "type": "VEC3"
    },
    {
      "bufferView": 2,
      "byteOffset": 48,
      "componentType": 5126,
      "count": 4,
      "max": [
        -0.0,
        -0.0,
        1.0
      ],
      "min": [
        -0.0,
        -0.0,
        1.0
      ],
      "type": "VEC3"
    },
    {
      "bufferView": 1,
      "componentType": 5126,
      "count": 4,
      "max": [
        0.6033343076705933,
        0.7690868377685547
      ],
      "min": [
        0.06530214101076126,
        0.38411253690719604
      ],
      "type": "VEC2"
    },
    {
      "bufferView": 0,
      "componentType": 5125,
      "count": 6,
      "type": "SCALAR"
    },
    {
      "bufferView": 2,
      "byteOffset": 96,
      "componentType": 5126,
      "count": 532,
      "max": [
        5604.22119140625,
        5514.2236328125,
        7416.0
      ],
      "min": [
        -4870.06689453125,
        -5382.3740234375,
        1.8758328224066645e-11
      ],
      "type": "VEC3"
    },
    {
      "bufferView": 2,
      "byteOffset": 6480,
      "componentType": 5126,
      "count": 532,
      "max": [
        0.9999977946281433,
        0.9999948740005493,
        3.221949006963591e-14
      ],
      "min": [
        -0.9999792575836182,
        -0.9999644160270691,
        -6.225198765627332e-15
      ],
      "type": "VEC3"
    },
    {
      "bufferView": 1,
      "byteOffset": 32,
      "componentType": 5126,
      "count": 532,
      "max": [
        153.072509765625,
        41.20000076293945
      ],
      "min": [
        -448.5367736816406,
        -1.262177448353619e-29
      ],
      "type": "VEC2"
    },
    {
      "bufferView": 0,
      "byteOffset": 24,
      "componentType": 5125,
      "count": 918,
      "type": "SCALAR"
    },
    {
      "bufferView": 2,
      "byteOffset": 12864,
      "componentType": 5126,
      "count": 1138,
      "max": [
        5671.85009765625,
        5514.2236328125,
        1140.0
      ],
      "min": [
        -4870.06689453125,
        -5442.6259765625,
        1.8758328224066645e-11
      ],
      "type": "VEC3"
    },
    {
      "bufferView": 2,
      "byteOffset": 26520,
      "componentType": 5126,
      "count": 1138,
      "max": [
        0.9999982714653015,
        0.9999948740005493,
        1.0
      ],
      "min": [
        -0.9998545050621033,
        -0.9999644160270691,
        -1.0
      ],
      "type": "VEC3"
    },
    {
      "bufferView": 1,
      "byteOffset": 4288,
      "componentType": 5126,
      "count": 1138,
      "max": [
        132.62283325195313,
        7.027542591094971
      ],
      "min": [
        -931.138427734375,
        -9.799633979797363
      ],
      "type": "VEC2"
    },
    {
      "bufferView": 0,
      "byteOffset": 3696,
      "componentType": 5125,
      "count": 2391,
      "type": "SCALAR"
    },
    {
      "bufferView": 2,
      "byteOffset": 40176,
      "componentType": 5126,
      "count": 807,
      "max": [
        5671.85009765625,
        5514.2236328125,
        7416.0
      ],
      "min": [
        -4870.06689453125,
        -5442.6259765625,
        1.9099388737231493e-11
      ],
      "type": "VEC3"
    },
    {
      "bufferView": 2,
      "byteOffset": 49860,
      "componentType": 5126,
      "count": 807,
      "max": [
        0.9358099699020386,
        0.999944806098938,
        1.0
      ],
      "min": [
        -0.929785966873169,
        -0.9999808073043823,
        -1.0
      ],
      "type": "VEC3"
    },
    {
      "bufferView": 1,
      "byteOffset": 13392,
      "componentType": 5126,
      "count": 807,
      "max": [
        136.3206329345703,
        111.9851303100586
      ],
      "min": [
        -426.5457763671875,
        -39.30097198486328
      ],
      "type": "VEC2"
    },
    {
      "bufferView": 0,
      "byteOffset": 13260,
      "componentType": 5125,
      "count": 1920,
      "type": "SCALAR"
    },
    {
      "bufferView": 2,
      "byteOffset": 59544,
      "componentType": 5126,
      "count": 912,
      "max": [
        5219.62646484375,
        4995.16259765625,
        17656.763671875
      ],
      "min": [
        -4625.79541015625,
        -5108.6689453125,
        540.0
      ],
      "type": "VEC3"
    },
    {
      "bufferView": 2,
      "byteOffset": 70488,
      "componentType": 5126,
      "count": 912,
      "max": [
        0.965925931930542,
        0.8660253882408142,
        1.0
      ],
      "min": [
        -0.965925931930542,
        -0.8660253882408142,
        -1.0
      ],
      "type": "VEC3"
    },
    {
      "bufferView": 1,
      "byteOffset": 19848,
      "componentType": 5126,
      "count": 912,
      "max": [
        1421.1875,
        360.3673400878906
      ],
      "min": [
        -1165.4425048828125,
        -143.47633361816406
      ],
      "type": "VEC2"
    },
    {
      "bufferView": 0,
      "byteOffset": 20940,
      "componentType": 5125,
      "count": 2028,
      "type": "SCALAR"
    },
    {
      "bufferView": 2,
      "byteOffset": 81432,
      "componentType": 5126,
      "count": 124,
      "max": [
        5417.3154296875,
        4229.5625,
        540.0
      ],
      "min": [
        -3667.279296875,
        -5322.19384765625,
        480.0
      ],
      "type": "VEC3"
    },
    {
      "bufferView": 2,
      "byteOffset": 82920,
      "componentType": 5126,
      "count": 124,
      "max": [
        0.0,
        0.0,
        1.0
      ],
      "min": [
        0.0,
        0.0,
        1.0
      ],
      "type": "VEC3"
    },
    {
      "bufferView": 1,
      "byteOffset": 27144,
      "componentType": 5126,
      "count": 124,
      "max": [
        776.9597778320313,
        -39.81630325317383
      ],
      "min": [
        433.7120361328125,
        -298.31414794921875
      ],
      "type": "VEC2"
    },
    {
      "bufferView": 0,
      "byteOffset": 29052,
      "componentType": 5125,
      "count": 336,
      "type": "SCALAR"
    },
    {
      "bufferView": 2,
      "byteOffset": 84408,
      "componentType": 5126,
      "count": 516,
      "max": [
        2164.1396484375,
        1588.3800048828125,
        480.00433349609375
      ],
      "min": [
        -1113.2740478515625,
        -1944.852294921875,
        0.038992296904325485
      ],
      "type": "VEC3"
    },
    {
      "bufferView": 2,
      "byteOffset": 90600,
      "componentType": 5126,
      "count": 516,
      "max": [
        0.96540766954422,
        0.96540766954422,
        0.032753150910139084
      ],
      "min": [
        -0.96540766954422,
        -0.96540766954422,
        0.02316618524491787
      ],
      "type": "VEC3"
    },
    {
      "bufferView": 1,
      "byteOffset": 28136,
      "componentType": 5126,
      "count": 516,
      "max": [
        2.646088123321533,
        1.5223106145858765
      ],
      "min": [
        -74.15921020507813,
        -0.970354437828064
      ],
      "type": "VEC2"
    },
    {
      "bufferView": 0,
      "byteOffset": 30396,
      "componentType": 5125,
      "count": 1050,
      "type": "SCALAR"
    },
    {
      "bufferView": 2,
      "byteOffset": 96792,
      "componentType": 5126,
      "count": 2205,
      "max": [
        2147.807373046875,
        1572.0477294921875,
        18631.447265625
      ],
      "min": [
        -1096.9417724609375,
        -1928.5198974609375,
        516.001708984375
      ],
      "type": "VEC3"
    },
    {
      "bufferView": 2,
      "byteOffset": 123252,
      "componentType": 5126,
      "count": 2205,
      "max": [
        0.96540766954422,
        0.96540766954422,
        0.032753150910139084
      ],
      "min": [
        -0.96540766954422,
        -0.96540766954422,
        0.02316618524491787
      ],
      "type": "VEC3"
    },
    {
      "bufferView": 1,
      "byteOffset": 32264,
      "componentType": 5126,
      "count": 2205,
      "max": [
        -11.39686107635498,
        7.515303134918213
      ],
      "min": [
        -214.56089782714844,
        -93.13333129882813
      ],
      "type": "VEC2"
    },
    {
      "bufferView": 0,
      "byteOffset": 34596,
      "componentType": 5125,
      "count": 4656,
      "type": "SCALAR"
    },
    {
      "bufferView": 2,
      "byteOffset": 149712,
      "componentType": 5126,
      "count": 3225,
      "max": [
        2247.51220703125,
        5160.79931640625,
        18694.689453125
      ],
      "min": [
        -3757.22314453125,
        -3440.374755859375,
        1.9099388737231493e-11
      ],
      "type": "VEC3"
    },
    {
      "bufferView": 2,
      "byteOffset": 188412,
      "componentType": 5126,
      "count": 3225,
      "max": [
        0.96540766954422,
        0.96540766954422,
        1.0
      ],
      "min": [
        -0.96540766954422,
        -0.9916043877601624,
        -1.0
      ],
      "type": "VEC3"
    },
    {
      "bufferView": 1,
      "byteOffset": 49904,
      "componentType": 5126,
      "count": 3225,
      "max": [
        4140.78564453125,
        686.597412109375
      ],
      "min": [
        -2569.703857421875,
        -2278.07275390625
      ],
      "type": "VEC2"
    },
    {
      "bufferView": 0,
      "byteOffset": 53220,
      "componentType": 5125,
      "count": 9372,
      "type": "SCALAR"
    },
    {
      "bufferView": 2,
      "byteOffset": 227112,
      "componentType": 5126,
      "count": 103,
      "max": [
        1694.91748046875,
        5160.79931640625,
        6480.0
      ],
      "min": [
        -3757.22314453125,
        -3440.374755859375,
        1.9099388737231493e-11
      ],
      "type": "VEC3"
    },
    {
      "bufferView": 2,
      "byteOffset": 228348,
      "componentType": 5126,
      "count": 103,
      "max": [
        0.8933606743812561,
        0.8933606743812561,
        1.5108222277709536e-16
      ],
      "min": [
        -0.8933606743812561,
        -0.8933606743812561,
        -3.064448206740219e-16
      ],
      "type": "VEC3"
    },
    {
      "bufferView": 1,
      "byteOffset": 75704,
      "componentType": 5126,
      "count": 103,
      "max": [
        115.55821990966797,
        36.0
      ],
      "min": [
        -459.7283935546875,
        2.524354896707238e-29
      ],
      "type": "VEC2"
    },
    {
      "bufferView": 0,
      "byteOffset": 90708,
      "componentType": 5125,
      "count": 165,
      "type": "SCALAR"
    },
    {
      "bufferView": 2,
      "byteOffset": 229584,
      "componentType": 5126,
      "count": 136,
      "max": [
        1529.4735107421875,
        950.2153930664063,
        18358.712890625
      ],
      "min": [
        -541.2564086914063,
        -1334.344970703125,
        13859.0380859375
      ],
      "type": "VEC3"
    },
    {
      "bufferView": 2,
      "byteOffset": 231216,
      "componentType": 5126,
      "count": 136,
      "max": [
        1.8434370349651452e-11,
        1.2383935890647457e-11,
        1.0
      ],
      "min": [
        -6.657813623328623e-12,
        -2.0487707017013967e-11,
        1.0
      ],
      "type": "VEC3"
    },
    {
      "bufferView": 1,
      "byteOffset": 76528,
      "componentType": 5126,
      "count": 136,
      "max": [
        134.4310302734375,
        -32.77477264404297
      ],
      "min": [
        116.2500228881836,
        -55.365203857421875
      ],
      "type": "VEC2"
    },
    {
      "bufferView": 0,
      "byteOffset": 91368,
      "componentType": 5125,
      "count": 270,
      "type": "SCALAR"
    },
    {
      "bufferView": 2,
      "byteOffset": 232848,
      "componentType": 5126,
      "count": 1009,
      "max": [
        1731.1429443359375,
        1314.4051513671875,
        18358.712890625
      ],
      "min": [
        -1403.7801513671875,
        -1494.7635498046875,
        540.0
      ],
      "type": "VEC3"
    },
    {
      "bufferView": 2,
      "byteOffset": 244956,
      "componentType": 5126,
      "count": 1009,
      "max": [
        2.05427723443119e-11,
        1.8069011564758597e-11,
        1.0
      ],
      "min": [
        -4.34121011708144e-12,
        -2.20822683055788e-11,
        -1.0
      ],
      "type": "VEC3"
    },
    {
      "bufferView": 1,
      "byteOffset": 77616,
      "componentType": 5126,
      "count": 1009,
      "max": [
        1.0,
        1.0
      ],
      "min": [
        0.0,
        0.0
      ],
      "type": "VEC2"
    },
    {
      "bufferView": 0,
      "byteOffset": 92448,
      "componentType": 5125,
      "count": 2673,
      "type": "SCALAR"
    },
    {
      "bufferView": 2,
      "byteOffset": 257064,
      "componentType": 5126,
      "count": 568,
      "max": [
        1808.5947265625,
        4988.9453125,
        17686.76171875
      ],
      "min": [
        -3478.83203125,
        -3652.789306640625,
        7002.32861328125
      ],
      "type": "VEC3"
    },
    {
      "bufferView": 2,
      "byteOffset": 263880,
      "componentType": 5126,
      "count": 568,
      "max": [
        0.8933606743812561,
        0.8933606743812561,
        1.0
      ],
      "min": [
        -0.8933606743812561,
        -0.8933606743812561,
        -1.0
      ],
      "type": "VEC3"
    },
    {
      "bufferView": 1,
      "byteOffset": 85688,
      "componentType": 5126,
      "count": 568,
      "max": [
        1.0,
        1.0
      ],
      "min": [
        0.0,
        0.0
      ],
      "type": "VEC2"
    },
    {
      "bufferView": 0,
      "byteOffset": 103140,
      "componentType": 5125,
      "count": 1092,
      "type": "SCALAR"
    },
    {
      "bufferView": 2,
      "byteOffset": 270696,
      "componentType": 5126,
      "count": 121,
      "max": [
        1533.08544921875,
        953.8273315429688,
        18358.712890625
      ],
      "min": [
        -544.8683471679688,
        -1337.9569091796875,
        13679.05078125
      ],
      "type": "VEC3"
    },
    {
      "bufferView": 2,
      "byteOffset": 272148,
      "componentType": 5126,
      "count": 121,
      "max": [
        0.8660253882408142,
        0.8660253882408142,
        4.830608829609062e-11
      ],
      "min": [
        -0.8660253882408142,
        -0.8660253882408142,
        -8.599760660532585e-12
      ],
      "type": "VEC3"
    },
    {
      "bufferView": 1,
      "byteOffset": 90232,
      "componentType": 5126,
      "count": 121,
      "max": [
        167.93276977539063,
        23.0
      ],
      "min": [
        71.22665405273438,
        -3.0
      ],
      "type": "VEC2"
    },
    {
      "bufferView": 0,
      "byteOffset": 107508,
      "componentType": 5125,
      "count": 225,
      "type": "SCALAR"
    },
    {
      "bufferView": 2,
      "byteOffset": 273600,
      "componentType": 5126,
      "count": 266,
      "max": [
        2203.033447265625,
        1562.9901123046875,
        360.01300048828125
      ],
      "min": [
        -638.08154296875,
        -2070.458984375,
        288.0181884765625
      ],
      "type": "VEC3"
    },
    {
      "bufferView": 2,
      "byteOffset": 276792,
      "componentType": 5126,
      "count": 266,
      "max": [
        8.477137047879779e-11,
        5.477103146023232e-11,
        1.0
      ],
      "min": [
        -7.796293471917792e-11,
        -4.5246216495709035e-11,
        -1.0
      ],
      "type": "VEC3"
    },
    {
      "bufferView": 1,
      "byteOffset": 91200,
      "componentType": 5126,
      "count": 266,
      "max": [
        12.868206977844238,
        13.563844680786133
      ],
      "min": [
        -216.55743408203125,
        -0.5760700106620789
      ],
      "type": "VEC2"
    },
    {
      "bufferView": 0,
      "byteOffset": 108408,
      "componentType": 5125,
      "count": 552,
      "type": "SCALAR"
    },
    {
      "bufferView": 2,
      "byteOffset": 279984,
      "componentType": 5126,
      "count": 70,
      "max": [
        912.9647827148438,
        246.64239501953125,
        17758.755859375
      ],
      "min": [
        166.89332580566406,
        -458.9005126953125,
        17638.765625
      ],
      "type": "VEC3"
    },
    {
      "bufferView": 2,
      "byteOffset": 280824,
      "componentType": 5126,
      "count": 70,
      "max": [
        0.8660253882408142,
        0.8660253882408142,
        1.0
      ],
      "min": [
        -0.8660253882408142,
        -0.8660253882408142,
        -5.063015239929519e-29
      ],
      "type": "VEC3"
    },
    {
      "bufferView": 1,
      "byteOffset": 93328,
      "componentType": 5126,
      "count": 70,
      "max": [
        1.0,
        1.0
      ],
      "min": [
        0.0,
        0.0
      ],
      "type": "VEC2"
    },
    {
      "bufferView": 0,
      "byteOffset": 110616,
      "componentType": 5125,
      "count": 114,
      "type": "SCALAR"
    },
    {
      "bufferView": 2,
      "byteOffset": 281664,
      "componentType": 5126,
      "count": 194,
      "max": [
        2164.1396484375,
        1588.3800048828125,
        0.03899233788251877
      ],
      "min": [
        -1113.2740478515625,
        -1944.852294921875,
        0.038992296904325485
      ],
      "type": "VEC3"
    },
    {
      "bufferView": 2,
      "byteOffset": 283992,
      "componentType": 5126,
      "count": 194,
      "max": [
        -1.0682814008400321e-11,
        6.527261803973561e-12,
        -1.0
      ],
      "min": [
        -1.0682814008400321e-11,
        6.527261803973561e-12,
        -1.0
      ],
      "type": "VEC3"
    },
    {
      "bufferView": 1,
      "byteOffset": 93888,
      "componentType": 5126,
      "count": 194,
      "max": [
        1.0,
        1.0
      ],
      "min": [
        0.0,
        -1.1102230246251565e-16
      ],
      "type": "VEC2"
    },
    {
      "bufferView": 0,
      "byteOffset": 111072,
      "componentType": 5125,
      "count": 576,
      "type": "SCALAR"
    }
  ],
  "asset": {
    "extras": {
      "author": "Void (https://sketchfab.com/Void.com)",
      "license": "CC-BY-4.0 (http://creativecommons.org/licenses/by/4.0/)",
      "source": "https://sketchfab.com/3d-models/wuhanctf-finance-center-ae06b8933f7e4b5fb749425afb2e454e",
      "title": "Wuhan+CTF+ Finance+ Center"
    },
    "generator": "Sketchfab-0.13.0",
    "version": "2.0"
  },
  "bufferViews": [
    {
      "buffer": 0,
      "byteLength": 113376,
      "name": "floatBufferViews",
      "target": 34963
    },
    {
      "buffer": 0,
      "byteLength": 95440,
      "byteOffset": 113376,
      "byteStride": 8,
      "name": "floatBufferViews",
      "target": 34962
    },
    {
      "buffer": 0,
      "byteLength": 286320,
      "byteOffset": 208816,
      "byteStride": 12,
      "name": "floatBufferViews",
      "target": 34962
    }
  ],
  "buffers": [
    {
      "byteLength": 495136,
      "uri": "scene.bin"
    }
  ],
  "images": [
    {
      "uri": "textures/MaterialView0_baseColor.jpeg"
    },
    {
      "uri": "textures/MaterialView1_baseColor.png"
    },
    {
      "uri": "textures/MaterialView2_baseColor.png"
    },
    {
      "uri": "textures/MaterialView3_baseColor.png"
    },
    {
      "uri": "textures/MaterialView4_baseColor.png"
    },
    {
      "uri": "textures/MaterialView5_baseColor.jpeg"
    },
    {
      "uri": "textures/MaterialView6_baseColor.png"
    },
    {
      "uri": "textures/MaterialView7_baseColor.png"
    },
    {
      "uri": "textures/MaterialView8_baseColor.png"
    },
    {
      "uri": "textures/MaterialView9_baseColor.png"
    },
    {
      "uri": "textures/MaterialView10_baseColor.png"
    },
    {
      "uri": "textures/MaterialView13_baseColor.png"
    },
    {
      "uri": "textures/MaterialView14_baseColor.png"
    }
  ],
  "materials": [
    {
      "doubleSided": true,
      "name": "3DGeom163435",
      "pbrMetallicRoughness": {
        "metallicFactor": 0.0,
        "roughnessFactor": 0.6
      }
    },
    {
      "doubleSided": true,
      "name": "MaterialView0",
      "pbrMetallicRoughness": {
        "baseColorTexture": {
          "index": 0
        },
        "metallicFactor": 0.5,
        "roughnessFactor": 0.5
      }
    },
    {
      "doubleSided": true,
      "name": "MaterialView1",
      "pbrMetallicRoughness": {
        "baseColorTexture": {
          "index": 1
        },
        "metallicFactor": 0.5,
        "roughnessFactor": 0.5
      }
    },
    {
      "doubleSided": true,
      "name": "MaterialView2",
      "pbrMetallicRoughness": {
        "baseColorTexture": {
          "index": 2
        },
        "metallicFactor": 0.5,
        "roughnessFactor": 0.5
      }
    },
    {
      "doubleSided": true,
      "name": "MaterialView3",
      "pbrMetallicRoughness": {
        "baseColorTexture": {
          "index": 3
        },
        "metallicFactor": 0.5,
        "roughnessFactor": 0.5
      }
    },
    {
      "doubleSided": true,
      "name": "MaterialView4",
      "pbrMetallicRoughness": {
        "baseColorTexture": {
          "index": 4
        },
        "metallicFactor": 0.5,
        "roughnessFactor": 0.5
      }
    },
    {
      "doubleSided": true,
      "name": "MaterialView5",
      "pbrMetallicRoughness": {
        "baseColorTexture": {
          "index": 5
        },
        "metallicFactor": 0.5,
        "roughnessFactor": 0.5
      }
    },
    {
      "doubleSided": true,
      "name": "MaterialView6",
      "pbrMetallicRoughness": {
        "baseColorTexture": {
          "index": 6
        },
        "metallicFactor": 0.5,
        "roughnessFactor": 0.5
      }
    },
    {
      "doubleSided": true,
      "name": "MaterialView7",
      "pbrMetallicRoughness": {
        "baseColorTexture": {
          "index": 7
        },
        "metallicFactor": 0.5,
        "roughnessFactor": 0.5
      }
    },
    {
      "doubleSided": true,
      "name": "MaterialView8",
      "pbrMetallicRoughness": {
        "baseColorTexture": {
          "index": 8
        },
        "metallicFactor": 0.5,
        "roughnessFactor": 0.5
      }
    },
    {
      "doubleSided": true,
      "name": "MaterialView9",
      "pbrMetallicRoughness": {
        "baseColorTexture": {
          "index": 9
        },
        "metallicFactor": 0.5,
        "roughnessFactor": 0.5
      }
    },
    {
      "doubleSided": true,
      "name": "MaterialView10",
      "pbrMetallicRoughness": {
        "baseColorTexture": {
          "index": 10
        },
        "metallicFactor": 0.5,
        "roughnessFactor": 0.5
      }
    },
    {
      "doubleSided": true,
      "name": "MaterialView11",
      "pbrMetallicRoughness": {
        "baseColorFactor": [
          0.776471,
          0.776471,
          0.776471,
          1.0
        ],
        "metallicFactor": 0.5,
        "roughnessFactor": 0.5
      }
    },
    {
      "doubleSided": true,
      "name": "MaterialView12",
      "pbrMetallicRoughness": {
        "baseColorFactor": [
          0.666667,
          0.666667,
          0.666667,
          1.0
        ],
        "metallicFactor": 0.5,
        "roughnessFactor": 0.5
      }
    },
    {
      "doubleSided": true,
      "name": "MaterialView13",
      "pbrMetallicRoughness": {
        "baseColorTexture": {
          "index": 11
        },
        "metallicFactor": 0.5,
        "roughnessFactor": 0.5
      }
    },
    {
      "doubleSided": true,
      "name": "MaterialView14",
      "pbrMetallicRoughness": {
        "baseColorTexture": {
          "index": 12
        },
        "metallicFactor": 0.5,
        "roughnessFactor": 0.5
      }
    },
    {
      "doubleSided": true,
      "name": "MaterialView15",
      "pbrMetallicRoughness": {
        "baseColorFactor": [
          0.447059,
          0.447059,
          0.447059,
          1.0
        ],
        "metallicFactor": 0.5,
        "roughnessFactor": 0.5
      }
    }
  ],
  "meshes": [
    {
      "name": "_3DGeom1723",
      "primitives": [
        {
          "attributes": {
            "NORMAL": 1,
            "POSITION": 0,
            "TEXCOORD_0": 2
          },
          "indices": 3,
          "material": 1,
          "mode": 4
        }
      ]
    },
    {
      "name": "_3DGeom145",
      "primitives": [
        {
          "attributes": {
            "NORMAL": 5,
            "POSITION": 4,
            "TEXCOORD_0": 6
          },
          "indices": 7,
          "material": 2,
          "mode": 4
        }
      ]
    },
    {
      "name": "_3DGeom267",
      "primitives": [
        {
          "attributes": {
            "NORMAL": 9,
            "POSITION": 8,
            "TEXCOORD_0": 10
          },
          "indices": 11,
          "material": 3,
          "mode": 4
        }
      ]
    },
    {
      "name": "_3DGeom389",
      "primitives": [
        {
          "attributes": {
            "NORMAL": 13,
            "POSITION": 12,
            "TEXCOORD_0": 14
          },
          "indices": 15,
          "material": 4,
          "mode": 4
        }
      ]
    },
    {
      "name": "_3DGeom41011",
      "primitives": [
        {
          "attributes": {
            "NORMAL": 17,
            "POSITION": 16,
            "TEXCOORD_0": 18
          },
          "indices": 19,
          "material": 5,
          "mode": 4
        }
      ]
    },
    {
      "name": "_3DGeom51213",
      "primitives": [
        {
          "attributes": {
            "NORMAL": 21,
            "POSITION": 20,
            "TEXCOORD_0": 22
          },
          "indices": 23,
          "material": 6,
          "mode": 4
        }
      ]
    },
    {
      "name": "_3DGeom61415",
      "primitives": [
        {
          "attributes": {
            "NORMAL": 25,
            "POSITION": 24,
            "TEXCOORD_0": 26
          },
          "indices": 27,
          "material": 7,
          "mode": 4
        }
      ]
    },
    {
      "name": "_3DGeom71617",
      "primitives": [
        {
          "attributes": {
            "NORMAL": 29,
            "POSITION": 28,
            "TEXCOORD_0": 30
          },
          "indices": 31,
          "material": 8,
          "mode": 4
        }
      ]
    },
    {
      "name": "_3DGeom81819",
      "primitives": [
        {
          "attributes": {
            "NORMAL": 33,
            "POSITION": 32,
            "TEXCOORD_0": 34
          },
          "indices": 35,
          "material": 9,
          "mode": 4
        }
      ]
    },
    {
      "name": "_3DGeom92021",
      "primitives": [
        {
          "attributes": {
            "NORMAL": 37,
            "POSITION": 36,
            "TEXCOORD_0": 38
          },
          "indices": 39,
          "material": 10,
          "mode": 4
        }
      ]
    },
    {
      "name": "_3DGeom102223",
      "primitives": [
        {
          "attributes": {
            "NORMAL": 41,
            "POSITION": 40,
            "TEXCOORD_0": 42
          },
          "indices": 43,
          "material": 11,
          "mode": 4
        }
      ]
    },
    {
      "name": "_3DGeom112425",
      "primitives": [
        {
          "attributes": {
            "NORMAL": 45,
            "POSITION": 44,
            "TEXCOORD_0": 46
          },
          "indices": 47,
          "material": 12,
          "mode": 4
        }
      ]
    },
    {
      "name": "_3DGeom122627",
      "primitives": [
        {
          "attributes": {
            "NORMAL": 49,
            "POSITION": 48,
            "TEXCOORD_0": 50
          },
          "indices": 51,
          "material": 13,
          "mode": 4
        }
      ]
    },
    {
      "name": "_3DGeom132829",
      "primitives": [
        {
          "attributes": {
            "NORMAL": 53,
            "POSITION": 52,
            "TEXCOORD_0": 54
          },
          "indices": 55,
          "material": 14,
          "mode": 4
        }
      ]
    },
    {
      "name": "_3DGeom143031",
      "primitives": [
        {
          "attributes": {
            "NORMAL": 57,
            "POSITION": 56,
            "TEXCOORD_0": 58
          },
          "indices": 59,
          "material": 15,
          "mode": 4
        }
      ]
    },
    {
      "name": "_3DGeom153233",
      "primitives": [
        {
          "attributes": {
            "NORMAL": 61,
            "POSITION": 60,
            "TEXCOORD_0": 62
          },
          "indices": 63,
          "material": 16,
          "mode": 4
        }
      ]
    },
    {
      "name": "_3DGeom163435",
      "primitives": [
        {
          "attributes": {
            "NORMAL": 65,
            "POSITION": 64,
            "TEXCOORD_0": 66
          },
          "indices": 67,
          "material": 0,
          "mode": 4
        }
      ]
    }
  ],
  "nodes": [
    {
      "children": [
        1
      ],
      "matrix": [
        1.0,
        0.0,
        0.0,
        0.0,
        0.0,
        2.220446049250313e-16,
        -1.0,
        0.0,
        0.0,
        1.0,
        2.220446049250313e-16,
        0.0,
        0.0,
        0.0,
        0.0,
        1.0
      ],
      "name": "Sketchfab_model"
    },
    {
      "children": [
        2
      ],
      "matrix": [
        0.009999999776482582,
        0.0,
        0.0,
        0.0,
        0.0,
        0.009999999776482582,
        0.0,
        0.0,
        0.0,
        0.0,
        0.009999999776482582,
        0.0,
        0.0,
        0.0,
        0.0,
        1.0
      ],
      "name": "USDRoot"
    },
    {
      "children": [
        3
      ],
      "matrix": [
        100.0,
        0.0,
        0.0,
        0.0,
        0.0,
        100.0,
        0.0,
        0.0,
        0.0,
        0.0,
        100.0,
        0.0,
        0.0,
        0.0,
        0.0,
        1.0
      ],
      "name": "model_3f2640ca_ef39_46b5_a555_720d7eecd141_bf57a5b3_sl"
    },
    {
      "children": [
        4,
        7,
        9,
        11,
        13,
        15,
        17,
        19,
        21,
        23,
        25,
        27,
        29,
        31,
        33,
        35,
        37
      ],
      "matrix": [
        0.02539999969303608,
        0.0,
        0.0,
        0.0,
        0.0,
        0.02539999969303608,
        0.0,
        0.0,
        0.0,
        0.0,
        0.02539999969303608,
        0.0,
        0.0,
        0.0,
        0.0,
        1.0
      ],
      "name": "Assembly20"
    },
    {
      "children": [
        5
      ],
      "name": "LocationSnapsh1"
    },
    {
      "children": [
        6
      ],
      "name": "_3DGeom172"
    },
    {
      "mesh": 0,
      "name": "_3DGeom1723"
    },
    {
      "children": [
        8
      ],
      "name": "_3DGeom14"
    },
    {
      "mesh": 1,
      "name": "_3DGeom145"
    },
    {
      "children": [
        10
      ],
      "name": "_3DGeom26"
    },
    {
      "mesh": 2,
      "name": "_3DGeom267"
    },
    {
      "children": [
        12
      ],
      "name": "_3DGeom38"
    },
    {
      "mesh": 3,
      "name": "_3DGeom389"
    },
    {
      "children": [
        14
      ],
      "name": "_3DGeom410"
    },
    {
      "mesh": 4,
      "name": "_3DGeom41011"
    },
    {
      "children": [
        16
      ],
      "name": "_3DGeom512"
    },
    {
      "mesh": 5,
      "name": "_3DGeom51213"
    },
    {
      "children": [
        18
      ],
      "name": "_3DGeom614"
    },
    {
      "mesh": 6,
      "name": "_3DGeom61415"
    },
    {
      "children": [
        20
      ],
      "name": "_3DGeom716"
    },
    {
      "mesh": 7,
      "name": "_3DGeom71617"
    },
    {
      "children": [
        22
      ],
      "name": "_3DGeom818"
    },
    {
      "mesh": 8,
      "name": "_3DGeom81819"
    },
    {
      "children": [
        24
      ],
      "name": "_3DGeom920"
    },
    {
      "mesh": 9,
      "name": "_3DGeom92021"
    },
    {
      "children": [
        26
      ],
      "name": "_3DGeom1022"
    },
    {
      "mesh": 10,
      "name": "_3DGeom102223"
    },
    {
      "children": [
        28
      ],
      "name": "_3DGeom1124"
    },
    {
      "mesh": 11,
      "name": "_3DGeom112425"
    },
    {
      "children": [
        30
      ],
      "name": "_3DGeom1226"
    },
    {
      "mesh": 12,
      "name": "_3DGeom122627"
    },
    {
      "children": [
        32
      ],
      "name": "_3DGeom1328"
    },
    {
      "mesh": 13,
      "name": "_3DGeom132829"
    },
    {
      "children": [
        34
      ],
      "name": "_3DGeom1430"
    },
    {
      "mesh": 14,
      "name": "_3DGeom143031"
    },
    {
      "children": [
        36
      ],
      "name": "_3DGeom1532"
    },
    {
      "mesh": 15,
      "name": "_3DGeom153233"
    },
    {
      "children": [
        38
      ],
      "name": "_3DGeom1634"
    },
    {
      "mesh": 16,
      "name": "_3DGeom163435"
    }
  ],
  "samplers": [
    {
      "magFilter": 9729,
      "minFilter": 9987,
      "wrapS": 10497,
      "wrapT": 10497
    }
  ],
  "scene": 0,
  "scenes": [
    {
      "name": "Sketchfab_Scene",
      "nodes": [
        0
      ]
    }
  ],
  "textures": [
    {
      "sampler": 0,
      "source": 0
    },
    {
      "sampler": 0,
      "source": 1
    },
    {
      "sampler": 0,
      "source": 2
    },
    {
      "sampler": 0,
      "source": 3
    },
    {
      "sampler": 0,
      "source": 4
    },
    {
      "sampler": 0,
      "source": 5
    },
    {
      "sampler": 0,
      "source": 6
    },
    {
      "sampler": 0,
      "source": 7
    },
    {
      "sampler": 0,
      "source": 8
    },
    {
      "sampler": 0,
      "source": 9
    },
    {
      "sampler": 0,
      "source": 10
    },
    {
      "sampler": 0,
      "source": 11
    },
    {
      "sampler": 0,
      "source": 12
    }
  ]
}
