{
  "accessors": [
    {
      "bufferView": 2,
      "componentType": 5126,
      "count": 498,
      "max": [
        7235.03955078125,
        7773.2109375,
        2371.564697265625
      ],
      "min": [
        -7099.30859375,
        -2547.611572265625,
        634.2047729492188
      ],
      "type": "VEC3"
    },
    {
      "bufferView": 2,
      "byteOffset": 5976,
      "componentType": 5126,
      "count": 498,
      "max": [
        0.999981164932251,
        0.999981164932251,
        2.580725890766189e-07
      ],
      "min": [
        -0.999981164932251,
        -0.999981164932251,
        -1.0
      ],
      "type": "VEC3"
    },
    {
      "bufferView": 1,
      "componentType": 5126,
      "count": 498,
      "max": [
        877.3475952148438,
        729.6868896484375
      ],
      "min": [
        -450.36517333984375,
        -589.1158447265625
      ],
      "type": "VEC2"
    },
    {
      "bufferView": 1,
      "byteOffset": 3984,
      "componentType": 5126,
      "count": 498,
      "max": [
        877.3475952148438,
        729.6868896484375
      ],
      "min": [
        -450.36517333984375,
        -589.1158447265625
      ],
      "type": "VEC2"
    },
    {
      "bufferView": 0,
      "componentType": 5125,
      "count": 1056,
      "type": "SCALAR"
    },
    {
      "bufferView": 2,
      "byteOffset": 11952,
      "componentType": 5126,
      "count": 704,
      "max": [
        7189.22705078125,
        7727.3984375,
        2188.684814453125
      ],
      "min": [
        -7053.49609375,
        -1993.8433837890625,
        7.392377682213791e-11
      ],
      "type": "VEC3"
    },
    {
      "bufferView": 2,
      "byteOffset": 20400,
      "componentType": 5126,
      "count": 704,
      "max": [
        0.9999812245368958,
        0.9999812245368958,
        8.438129128762739e-08
      ],
      "min": [
        -0.9999812245368958,
        -0.9999812245368958,
        -1.0
      ],
      "type": "VEC3"
    },
    {
      "bufferView": 1,
      "byteOffset": 7968,
      "componentType": 5126,
      "count": 704,
      "max": [
        2686.784912109375,
        2952.10107421875
      ],
      "min": [
        -2740.222412109375,
        -784.9777221679688
      ],
      "type": "VEC2"
    },
    {
      "bufferView": 1,
      "byteOffset": 13600,
      "componentType": 5126,
      "count": 704,
      "max": [
        2686.784912109375,
        2952.10107421875
      ],
      "min": [
        -2740.222412109375,
        -784.9777221679688
      ],
      "type": "VEC2"
    },
    {
      "bufferView": 0,
      "byteOffset": 4224,
      "componentType": 5125,
      "count": 1500,
      "type": "SCALAR"
    },
    {
      "bufferView": 2,
      "byteOffset": 28848,
      "componentType": 5126,
      "count": 84,
      "max": [
        1586.713134765625,
        -1484.4505615234375,
        40873.6796875
      ],
      "min": [
        -1520.4830322265625,
        -7535.11279296875,
        2926.080078125
      ],
      "type": "VEC3"
    },
    {
      "bufferView": 2,
      "byteOffset": 29856,
      "componentType": 5126,
      "count": 84,
      "max": [
        0.4162808656692505,
        0.9092360138893127,
        0.10562451183795929
      ],
      "min": [
        -0.41628047823905945,
        -0.9092361927032471,
        -0.039521925151348114
      ],
      "type": "VEC3"
    },
    {
      "bufferView": 1,
      "byteOffset": 19232,
      "componentType": 5126,
      "count": 84,
      "max": [
        285.5777282714844,
        83.0
      ],
      "min": [
        177.97364807128906,
        2.842170943040401e-14
      ],
      "type": "VEC2"
    },
    {
      "bufferView": 1,
      "byteOffset": 19904,
      "componentType": 5126,
      "count": 84,
      "max": [
        285.5777282714844,
        83.0
      ],
      "min": [
        177.97364807128906,
        2.842170943040401e-14
      ],
      "type": "VEC2"
    },
    {
      "bufferView": 0,
      "byteOffset": 10224,
      "componentType": 5125,
      "count": 240,
      "type": "SCALAR"
    },
    {
      "bufferView": 2,
      "byteOffset": 30864,
      "componentType": 5126,
      "count": 8,
      "max": [
        1569.7025146484375,
        -1758.7086181640625,
        2926.080078125
      ],
      "min": [
        -1503.472412109375,
        -7260.8544921875,
        7.39235755942147e-11
      ],
      "type": "VEC3"
    },
    {
      "bufferView": 2,
      "byteOffset": 30960,
      "componentType": 5126,
      "count": 8,
      "max": [
        0.41585221886634827,
        0.9083001017570496,
        -0.04536464810371399
      ],
      "min": [
        -0.4158521890640259,
        -0.9083001017570496,
        -0.04536476358771324
      ],
      "type": "VEC3"
    },
    {
      "bufferView": 1,
      "byteOffset": 20576,
      "componentType": 5126,
      "count": 8,
      "max": [
        -4.877963066101074,
        1.0
      ],
      "min": [
        -5.783180236816406,
        2.960594661747672e-15
      ],
      "type": "VEC2"
    },
    {
      "bufferView": 1,
      "byteOffset": 20640,
      "componentType": 5126,
      "count": 8,
      "max": [
        -4.877963066101074,
        1.0
      ],
      "min": [
        -5.783180236816406,
        2.960594661747672e-15
      ],
      "type": "VEC2"
    },
    {
      "bufferView": 0,
      "byteOffset": 11184,
      "componentType": 5125,
      "count": 12,
      "type": "SCALAR"
    },
    {
      "bufferView": 2,
      "byteOffset": 31056,
      "componentType": 5126,
      "count": 5,
      "max": [
        -864.5646362304688,
        2089.68701171875,
        1274.2847900390625
      ],
      "min": [
        -3999.10302734375,
        -2012.4931640625,
        1274.2847900390625
      ],
      "type": "VEC3"
    },
    {
      "bufferView": 2,
      "byteOffset": 31116,
      "componentType": 5126,
      "count": 5,
      "max": [
        0.0,
        0.0,
        1.0
      ],
      "min": [
        0.0,
        0.0,
        1.0
      ],
      "type": "VEC3"
    },
    {
      "bufferView": 1,
      "byteOffset": 20704,
      "componentType": 5126,
      "count": 5,
      "max": [
        -810.8967895507813,
        -322.5943298339844
      ],
      "min": [
        -877.1326904296875,
        -375.41162109375
      ],
      "type": "VEC2"
    },
    {
      "bufferView": 1,
      "byteOffset": 20744,
      "componentType": 5126,
      "count": 5,
      "max": [
        -810.8967895507813,
        -322.5943298339844
      ],
      "min": [
        -877.1326904296875,
        -375.41162109375
      ],
      "type": "VEC2"
    },
    {
      "bufferView": 0,
      "byteOffset": 11232,
      "componentType": 5125,
      "count": 9,
      "type": "SCALAR"
    },
    {
      "bufferView": 2,
      "byteOffset": 31176,
      "componentType": 5126,
      "count": 24,
      "max": [
        1295.4755859375,
        -2748.490966796875,
        43079.21875
      ],
      "min": [
        -1229.2454833984375,
        -6271.072265625,
        41184.29296875
      ],
      "type": "VEC3"
    },
    {
      "bufferView": 2,
      "byteOffset": 31464,
      "componentType": 5126,
      "count": 24,
      "max": [
        -0.18802517652511597,
        -0.4107377529144287,
        0.89215087890625
      ],
      "min": [
        -0.18806707859039307,
        -0.4107474386692047,
        0.8921459317207336
      ],
      "type": "VEC3"
    },
    {
      "bufferView": 1,
      "byteOffset": 20784,
      "componentType": 5126,
      "count": 24,
      "max": [
        10.698479652404785,
        16.276988983154297
      ],
      "min": [
        -8.605151176452637,
        -11.726977348327637
      ],
      "type": "VEC2"
    },
    {
      "bufferView": 1,
      "byteOffset": 20976,
      "componentType": 5126,
      "count": 24,
      "max": [
        10.698479652404785,
        16.276988983154297
      ],
      "min": [
        -8.605151176452637,
        -11.726977348327637
      ],
      "type": "VEC2"
    },
    {
      "bufferView": 0,
      "byteOffset": 11268,
      "componentType": 5125,
      "count": 66,
      "type": "SCALAR"
    },
    {
      "bufferView": 2,
      "byteOffset": 31752,
      "componentType": 5126,
      "count": 2241,
      "max": [
        7235.03955078125,
        7773.2109375,
        2926.080078125
      ],
      "min": [
        -7099.30859375,
        -7650.15966796875,
        7.39235755942147e-11
      ],
      "type": "VEC3"
    },
    {
      "bufferView": 2,
      "byteOffset": 58644,
      "componentType": 5126,
      "count": 2241,
      "max": [
        0.9999812245368958,
        0.9999812245368958,
        1.0
      ],
      "min": [
        -0.999981164932251,
        -0.9999812245368958,
        -1.0
      ],
      "type": "VEC3"
    },
    {
      "bufferView": 1,
      "byteOffset": 21168,
      "componentType": 5126,
      "count": 2241,
      "max": [
        1002.7980346679688,
        149.38645935058594
      ],
      "min": [
        -1195.2095947265625,
        -1022.8558959960938
      ],
      "type": "VEC2"
    },
    {
      "bufferView": 1,
      "byteOffset": 39096,
      "componentType": 5126,
      "count": 2241,
      "max": [
        1002.7980346679688,
        149.38645935058594
      ],
      "min": [
        -1195.2095947265625,
        -1022.8558959960938
      ],
      "type": "VEC2"
    },
    {
      "bufferView": 0,
      "byteOffset": 11532,
      "componentType": 5125,
      "count": 4563,
      "type": "SCALAR"
    },
    {
      "bufferView": 2,
      "byteOffset": 85536,
      "componentType": 5126,
      "count": 158,
      "max": [
        3239.651123046875,
        7635.701171875,
        2767.8046875
      ],
      "min": [
        -5639.4189453125,
        479.5396423339844,
        2310.604736328125
      ],
      "type": "VEC3"
    },
    {
      "bufferView": 2,
      "byteOffset": 87432,
      "componentType": 5126,
      "count": 158,
      "max": [
        0.9698721170425415,
        0.9698720574378967,
        1.0
      ],
      "min": [
        -0.9698721170425415,
        -0.9698721170425415,
        -9.674068905951572e-07
      ],
      "type": "VEC3"
    },
    {
      "bufferView": 1,
      "byteOffset": 57024,
      "componentType": 5126,
      "count": 158,
      "max": [
        286.52239990234375,
        64.09922790527344
      ],
      "min": [
        -261.3795471191406,
        -314.6461181640625
      ],
      "type": "VEC2"
    },
    {
      "bufferView": 1,
      "byteOffset": 58288,
      "componentType": 5126,
      "count": 158,
      "max": [
        286.52239990234375,
        64.09922790527344
      ],
      "min": [
        -261.3795471191406,
        -314.6461181640625
      ],
      "type": "VEC2"
    },
    {
      "bufferView": 0,
      "byteOffset": 29784,
      "componentType": 5125,
      "count": 270,
      "type": "SCALAR"
    },
    {
      "bufferView": 2,
      "byteOffset": 89328,
      "componentType": 5126,
      "count": 1708,
      "max": [
        3408.79833984375,
        -1055.055419921875,
        39959.28125
      ],
      "min": [
        -3342.568359375,
        -7964.5078125,
        2926.080078125
      ],
      "type": "VEC3"
    },
    {
      "bufferView": 2,
      "byteOffset": 109824,
      "componentType": 5126,
      "count": 1708,
      "max": [
        0.9999997019767761,
        0.9413509368896484,
        1.0
      ],
      "min": [
        -0.9999997019767761,
        -0.999960720539093,
        -1.0
      ],
      "type": "VEC3"
    },
    {
      "bufferView": 1,
      "byteOffset": 59552,
      "componentType": 5126,
      "count": 1708,
      "max": [
        1158.7432861328125,
        40.5
      ],
      "min": [
        -1256.0164794921875,
        -2574.591552734375
      ],
      "type": "VEC2"
    },
    {
      "bufferView": 1,
      "byteOffset": 73216,
      "componentType": 5126,
      "count": 1708,
      "max": [
        1158.7432861328125,
        40.5
      ],
      "min": [
        -1256.0164794921875,
        -2574.591552734375
      ],
      "type": "VEC2"
    },
    {
      "bufferView": 0,
      "byteOffset": 30864,
      "componentType": 5125,
      "count": 5124,
      "type": "SCALAR"
    },
    {
      "bufferView": 2,
      "byteOffset": 130320,
      "componentType": 5126,
      "count": 173,
      "max": [
        2715.895263671875,
        -1895.432861328125,
        43563.02734375
      ],
      "min": [
        -2649.665283203125,
        -7124.13037109375,
        39959.28125
      ],
      "type": "VEC3"
    },
    {
      "bufferView": 2,
      "byteOffset": 132396,
      "componentType": 5126,
      "count": 173,
      "max": [
        0.9977197647094727,
        0.940025269985199,
        0.07514483481645584
      ],
      "min": [
        -0.997798502445221,
        -0.940025269985199,
        -0.0740782618522644
      ],
      "type": "VEC3"
    },
    {
      "bufferView": 1,
      "byteOffset": 86880,
      "componentType": 5126,
      "count": 173,
      "max": [
        -19.48166275024414,
        3.941107749938965
      ],
      "min": [
        -36.695648193359375,
        -1.4210854715202004e-14
      ],
      "type": "VEC2"
    },
    {
      "bufferView": 1,
      "byteOffset": 88264,
      "componentType": 5126,
      "count": 173,
      "max": [
        -19.48166275024414,
        3.941107749938965
      ],
      "min": [
        -36.695648193359375,
        -1.4210854715202004e-14
      ],
      "type": "VEC2"
    },
    {
      "bufferView": 0,
      "byteOffset": 51360,
      "componentType": 5125,
      "count": 462,
      "type": "SCALAR"
    },
    {
      "bufferView": 2,
      "byteOffset": 134472,
      "componentType": 5126,
      "count": 524,
      "max": [
        3184.52294921875,
        -1471.2738037109375,
        2926.080078125
      ],
      "min": [
        -3116.888671875,
        -7548.28955078125,
        7.39235755942147e-11
      ],
      "type": "VEC3"
    },
    {
      "bufferView": 2,
      "byteOffset": 140760,
      "componentType": 5126,
      "count": 524,
      "max": [
        0.9992062449455261,
        0.9411324262619019,
        1.0
      ],
      "min": [
        -0.9992062449455261,
        -0.9411312341690063,
        -1.0
      ],
      "type": "VEC3"
    },
    {
      "bufferView": 1,
      "byteOffset": 89648,
      "componentType": 5126,
      "count": 524,
      "max": [
        1198.0950927734375,
        1.0
      ],
      "min": [
        -1253.749267578125,
        -2971.767578125
      ],
      "type": "VEC2"
    },
    {
      "bufferView": 1,
      "byteOffset": 93840,
      "componentType": 5126,
      "count": 524,
      "max": [
        1198.0950927734375,
        1.0
      ],
      "min": [
        -1253.749267578125,
        -2971.767578125
      ],
      "type": "VEC2"
    },
    {
      "bufferView": 0,
      "byteOffset": 53208,
      "componentType": 5125,
      "count": 1020,
      "type": "SCALAR"
    },
    {
      "bufferView": 2,
      "byteOffset": 147048,
      "componentType": 5126,
      "count": 1019,
      "max": [
        3408.357177734375,
        -1514.982666015625,
        40407.6953125
      ],
      "min": [
        -3342.126953125,
        -7504.58056640625,
        2926.080078125
      ],
      "type": "VEC3"
    },
    {
      "bufferView": 2,
      "byteOffset": 159276,
      "componentType": 5126,
      "count": 1019,
      "max": [
        0.9999997019767761,
        0.9413508772850037,
        0.03756589815020561
      ],
      "min": [
        -0.9999997019767761,
        -0.9763318300247192,
        -1.0
      ],
      "type": "VEC3"
    },
    {
      "bufferView": 1,
      "byteOffset": 98032,
      "componentType": 5126,
      "count": 1019,
      "max": [
        1115.2427978515625,
        723.1155395507813
      ],
      "min": [
        -819.1259765625,
        -1117.9124755859375
      ],
      "type": "VEC2"
    },
    {
      "bufferView": 1,
      "byteOffset": 106184,
      "componentType": 5126,
      "count": 1019,
      "max": [
        1115.2427978515625,
        723.1155395507813
      ],
      "min": [
        -819.1259765625,
        -1117.9124755859375
      ],
      "type": "VEC2"
    },
    {
      "bufferView": 0,
      "byteOffset": 57288,
      "componentType": 5125,
      "count": 1527,
      "type": "SCALAR"
    },
    {
      "bufferView": 2,
      "byteOffset": 171504,
      "componentType": 5126,
      "count": 401,
      "max": [
        2027.6531982421875,
        -1055.055419921875,
        43830.23828125
      ],
      "min": [
        -2379.234619140625,
        -7964.5078125,
        2926.080078125
      ],
      "type": "VEC3"
    },
    {
      "bufferView": 2,
      "byteOffset": 176316,
      "componentType": 5126,
      "count": 401,
      "max": [
        0.9984021782875061,
        0.9969202280044556,
        0.087967149913311
      ],
      "min": [
        -0.9984022378921509,
        -0.9989593029022217,
        -1.0
      ],
      "type": "VEC3"
    },
    {
      "bufferView": 1,
      "byteOffset": 114336,
      "componentType": 5126,
      "count": 401,
      "max": [
        936.70654296875,
        89.46666717529297
      ],
      "min": [
        -455.82373046875,
        -989.8952026367188
      ],
      "type": "VEC2"
    },
    {
      "bufferView": 1,
      "byteOffset": 117544,
      "componentType": 5126,
      "count": 401,
      "max": [
        936.70654296875,
        89.46666717529297
      ],
      "min": [
        -455.82373046875,
        -989.8952026367188
      ],
      "type": "VEC2"
    },
    {
      "bufferView": 0,
      "byteOffset": 63396,
      "componentType": 5125,
      "count": 1149,
      "type": "SCALAR"
    },
    {
      "bufferView": 2,
      "byteOffset": 181128,
      "componentType": 5126,
      "count": 485,
      "max": [
        3251.362060546875,
        -1287.3739013671875,
        43830.23828125
      ],
      "min": [
        -3185.132080078125,
        -7732.189453125,
        2926.080078125
      ],
      "type": "VEC3"
    },
    {
      "bufferView": 2,
      "byteOffset": 186948,
      "componentType": 5126,
      "count": 485,
      "max": [
        0.9977788329124451,
        0.9396185278892517,
        0.8921834826469421
      ],
      "min": [
        -0.9974809885025024,
        -0.939828634262085,
        -1.0
      ],
      "type": "VEC3"
    },
    {
      "bufferView": 1,
      "byteOffset": 120752,
      "componentType": 5126,
      "count": 485,
      "max": [
        1611.9853515625,
        90.02641296386719
      ],
      "min": [
        -1726.4710693359375,
        -1089.3876953125
      ],
      "type": "VEC2"
    },
    {
      "bufferView": 1,
      "byteOffset": 124632,
      "componentType": 5126,
      "count": 485,
      "max": [
        1611.9853515625,
        90.02641296386719
      ],
      "min": [
        -1726.4710693359375,
        -1089.3876953125
      ],
      "type": "VEC2"
    },
    {
      "bufferView": 0,
      "byteOffset": 67992,
      "componentType": 5125,
      "count": 1323,
      "type": "SCALAR"
    },
    {
      "bufferView": 2,
      "byteOffset": 192768,
      "componentType": 5126,
      "count": 14,
      "max": [
        807.8237915039063,
        976.551025390625,
        1792.44482421875
      ],
      "min": [
        146.48219299316406,
        -1656.360107421875,
        695.164794921875
      ],
      "type": "VEC3"
    },
    {
      "bufferView": 2,
      "byteOffset": 192936,
      "componentType": 5126,
      "count": 14,
      "max": [
        -0.9698716998100281,
        0.2436160296201706,
        8.759694480886537e-08
      ],
      "min": [
        -0.9698721170425415,
        0.24361443519592285,
        -1.0949610640409446e-07
      ],
      "type": "VEC3"
    },
    {
      "bufferView": 1,
      "byteOffset": 128512,
      "componentType": 5126,
      "count": 14,
      "max": [
        103.10149383544922,
        17.857336044311523
      ],
      "min": [
        84.35098266601563,
        6.925619602203369
      ],
      "type": "VEC2"
    },
    {
      "bufferView": 1,
      "byteOffset": 128624,
      "componentType": 5126,
      "count": 14,
      "max": [
        103.10149383544922,
        17.857336044311523
      ],
      "min": [
        84.35098266601563,
        6.925619602203369
      ],
      "type": "VEC2"
    },
    {
      "bufferView": 0,
      "byteOffset": 73284,
      "componentType": 5125,
      "count": 30,
      "type": "SCALAR"
    },
    {
      "bufferView": 2,
      "byteOffset": 193104,
      "componentType": 5126,
      "count": 1174,
      "max": [
        7235.03955078125,
        7773.2109375,
        2767.8046875
      ],
      "min": [
        -7099.30859375,
        -1496.3543701171875,
        7.392377682213791e-11
      ],
      "type": "VEC3"
    },
    {
      "bufferView": 2,
      "byteOffset": 207192,
      "componentType": 5126,
      "count": 1174,
      "max": [
        0.999981164932251,
        0.9992948770523071,
        1.0
      ],
      "min": [
        -0.9987630844116211,
        -0.9987631440162659,
        -1.0
      ],
      "type": "VEC3"
    },
    {
      "bufferView": 1,
      "byteOffset": 128736,
      "componentType": 5126,
      "count": 1174,
      "max": [
        2861.362548828125,
        3060.3193359375
      ],
      "min": [
        -2864.5087890625,
        -308.707275390625
      ],
      "type": "VEC2"
    },
    {
      "bufferView": 1,
      "byteOffset": 138128,
      "componentType": 5126,
      "count": 1174,
      "max": [
        2861.362548828125,
        3060.3193359375
      ],
      "min": [
        -2864.5087890625,
        -308.707275390625
      ],
      "type": "VEC2"
    },
    {
      "bufferView": 0,
      "byteOffset": 73404,
      "componentType": 5125,
      "count": 2316,
      "type": "SCALAR"
    },
    {
      "bufferView": 2,
      "byteOffset": 221280,
      "componentType": 5126,
      "count": 49,
      "max": [
        7097.60205078125,
        4188.25048828125,
        1792.44482421875
      ],
      "min": [
        -6881.0478515625,
        -2471.760498046875,
        695.164794921875
      ],
      "type": "VEC3"
    },
    {
      "bufferView": 2,
      "byteOffset": 221868,
      "componentType": 5126,
      "count": 49,
      "max": [
        0.9967083930969238,
        0.08106997609138489,
        1.0
      ],
      "min": [
        -0.8898152709007263,
        -0.977599561214447,
        -1.0
      ],
      "type": "VEC3"
    },
    {
      "bufferView": 1,
      "byteOffset": 147520,
      "componentType": 5126,
      "count": 49,
      "max": [
        2189.973388671875,
        705.6868896484375
      ],
      "min": [
        -2862.149169921875,
        -258.5592346191406
      ],
      "type": "VEC2"
    },
    {
      "bufferView": 1,
      "byteOffset": 147912,
      "componentType": 5126,
      "count": 49,
      "max": [
        2189.973388671875,
        705.6868896484375
      ],
      "min": [
        -2862.149169921875,
        -258.5592346191406
      ],
      "type": "VEC2"
    },
    {
      "bufferView": 0,
      "byteOffset": 82668,
      "componentType": 5125,
      "count": 69,
      "type": "SCALAR"
    },
    {
      "bufferView": 2,
      "byteOffset": 222456,
      "componentType": 5126,
      "count": 1541,
      "max": [
        3408.357177734375,
        -1055.055419921875,
        43830.23828125
      ],
      "min": [
        -3342.126953125,
        -7964.5078125,
        7.39235755942147e-11
      ],
      "type": "VEC3"
    },
    {
      "bufferView": 2,
      "byteOffset": 240948,
      "componentType": 5126,
      "count": 1541,
      "max": [
        0.9999997019767761,
        0.9738007187843323,
        1.0
      ],
      "min": [
        -0.9999996423721313,
        -0.999960720539093,
        -1.0
      ],
      "type": "VEC3"
    },
    {
      "bufferView": 1,
      "byteOffset": 148304,
      "componentType": 5126,
      "count": 1541,
      "max": [
        2187.41748046875,
        16976.76171875
      ],
      "min": [
        -2271.2353515625,
        -3044.1689453125
      ],
      "type": "VEC2"
    },
    {
      "bufferView": 1,
      "byteOffset": 160632,
      "componentType": 5126,
      "count": 1541,
      "max": [
        2187.41748046875,
        16976.76171875
      ],
      "min": [
        -2271.2353515625,
        -3044.1689453125
      ],
      "type": "VEC2"
    },
    {
      "bufferView": 0,
      "byteOffset": 82944,
      "componentType": 5125,
      "count": 4410,
      "type": "SCALAR"
    },
    {
      "bufferView": 2,
      "byteOffset": 259440,
      "componentType": 5126,
      "count": 939,
      "max": [
        7235.03955078125,
        7773.2109375,
        2767.8046875
      ],
      "min": [
        -7099.30859375,
        -2548.86083984375,
        7.392377682213791e-11
      ],
      "type": "VEC3"
    },
    {
      "bufferView": 2,
      "byteOffset": 270708,
      "componentType": 5126,
      "count": 939,
      "max": [
        0.9999812245368958,
        0.998763382434845,
        1.0
      ],
      "min": [
        -0.9999626874923706,
        -0.999981164932251,
        -1.0
      ],
      "type": "VEC3"
    },
    {
      "bufferView": 1,
      "byteOffset": 172960,
      "componentType": 5126,
      "count": 939,
      "max": [
        2784.6142578125,
        3024.24658203125
      ],
      "min": [
        -2864.5087890625,
        -496.39520263671875
      ],
      "type": "VEC2"
    },
    {
      "bufferView": 1,
      "byteOffset": 180472,
      "componentType": 5126,
      "count": 939,
      "max": [
        2784.6142578125,
        3024.24658203125
      ],
      "min": [
        -2864.5087890625,
        -496.39520263671875
      ],
      "type": "VEC2"
    },
    {
      "bufferView": 0,
      "byteOffset": 100584,
      "componentType": 5125,
      "count": 1695,
      "type": "SCALAR"
    },
    {
      "bufferView": 2,
      "byteOffset": 281976,
      "componentType": 5126,
      "count": 2430,
      "max": [
        7235.03955078125,
        7773.2109375,
        43830.23828125
      ],
      "min": [
        -7099.30859375,
        -7650.15966796875,
        7.39235755942147e-11
      ],
      "type": "VEC3"
    },
    {
      "bufferView": 2,
      "byteOffset": 311136,
      "componentType": 5126,
      "count": 2430,
      "max": [
        0.9999997019767761,
        0.9987630844116211,
        1.0
      ],
      "min": [
        -0.9999996423721313,
        -0.9987631440162659,
        -1.0
      ],
      "type": "VEC3"
    },
    {
      "bufferView": 1,
      "byteOffset": 187984,
      "componentType": 5126,
      "count": 2430,
      "max": [
        2923.724853515625,
        16976.76171875
      ],
      "min": [
        -2846.07080078125,
        -2971.767578125
      ],
      "type": "VEC2"
    },
    {
      "bufferView": 1,
      "byteOffset": 207424,
      "componentType": 5126,
      "count": 2430,
      "max": [
        2923.724853515625,
        16976.76171875
      ],
      "min": [
        -2846.07080078125,
        -2971.767578125
      ],
      "type": "VEC2"
    },
    {
      "bufferView": 0,
      "byteOffset": 107364,
      "componentType": 5125,
      "count": 6792,
      "type": "SCALAR"
    },
    {
      "bufferView": 2,
      "byteOffset": 340296,
      "componentType": 5126,
      "count": 251,
      "max": [
        2958.81640625,
        -2324.827880859375,
        43563.02734375
      ],
      "min": [
        -3116.888671875,
        -6635.541015625,
        7.499550980227809e-11
      ],
      "type": "VEC3"
    },
    {
      "bufferView": 2,
      "byteOffset": 343308,
      "componentType": 5126,
      "count": 251,
      "max": [
        0.9977197647094727,
        0.9865118265151978,
        0.8921551704406738
      ],
      "min": [
        -0.9984914660453796,
        -0.9166350960731506,
        -0.11760623753070831
      ],
      "type": "VEC3"
    },
    {
      "bufferView": 1,
      "byteOffset": 226864,
      "componentType": 5126,
      "count": 251,
      "max": [
        1837.0399169921875,
        17107.2890625
      ],
      "min": [
        -2142.48046875,
        -5.325073719024658
      ],
      "type": "VEC2"
    },
    {
      "bufferView": 1,
      "byteOffset": 228872,
      "componentType": 5126,
      "count": 251,
      "max": [
        1837.0399169921875,
        17107.2890625
      ],
      "min": [
        -2142.48046875,
        -5.325073719024658
      ],
      "type": "VEC2"
    },
    {
      "bufferView": 0,
      "byteOffset": 134532,
      "componentType": 5125,
      "count": 642,
      "type": "SCALAR"
    },
    {
      "bufferView": 2,
      "byteOffset": 346320,
      "componentType": 5126,
      "count": 452,
      "max": [
        3369.46484375,
        -2017.283447265625,
        42387.78515625
      ],
      "min": [
        -3303.23486328125,
        -7145.38232421875,
        7.39235755942147e-11
      ],
      "type": "VEC3"
    },
    {
      "bufferView": 2,
      "byteOffset": 351744,
      "componentType": 5126,
      "count": 452,
      "max": [
        0.9999286532402039,
        0.9411318898200989,
        0.014345628209412098
      ],
      "min": [
        -0.9999287128448486,
        -0.9763319492340088,
        -0.03827127814292908
      ],
      "type": "VEC3"
    },
    {
      "bufferView": 1,
      "byteOffset": 230880,
      "componentType": 5126,
      "count": 452,
      "max": [
        1578.060302734375,
        16688.10546875
      ],
      "min": [
        -2266.2294921875,
        0.6968632340431213
      ],
      "type": "VEC2"
    },
    {
      "bufferView": 1,
      "byteOffset": 234496,
      "componentType": 5126,
      "count": 452,
      "max": [
        1578.060302734375,
        16688.10546875
      ],
      "min": [
        -2266.2294921875,
        0.6968632340431213
      ],
      "type": "VEC2"
    },
    {
      "bufferView": 0,
      "byteOffset": 137100,
      "componentType": 5125,
      "count": 684,
      "type": "SCALAR"
    },
    {
      "bufferView": 2,
      "byteOffset": 357168,
      "componentType": 5126,
      "count": 168,
      "max": [
        3170.105224609375,
        -2090.037353515625,
        43657.5234375
      ],
      "min": [
        -3085.616943359375,
        -7187.40673828125,
        7.39235755942147e-11
      ],
      "type": "VEC3"
    },
    {
      "bufferView": 2,
      "byteOffset": 359184,
      "componentType": 5126,
      "count": 168,
      "max": [
        0.9977893233299255,
        0.9396272301673889,
        0.07231631129980087
      ],
      "min": [
        -0.9999427795410156,
        -0.9411311149597168,
        -1.0
      ],
      "type": "VEC3"
    },
    {
      "bufferView": 1,
      "byteOffset": 238112,
      "componentType": 5126,
      "count": 168,
      "max": [
        2364.291015625,
        17170.92578125
      ],
      "min": [
        -1962.3682861328125,
        -989.8952026367188
      ],
      "type": "VEC2"
    },
    {
      "bufferView": 1,
      "byteOffset": 239456,
      "componentType": 5126,
      "count": 168,
      "max": [
        2364.291015625,
        17170.92578125
      ],
      "min": [
        -1962.3682861328125,
        -989.8952026367188
      ],
      "type": "VEC2"
    },
    {
      "bufferView": 0,
      "byteOffset": 139836,
      "componentType": 5125,
      "count": 432,
      "type": "SCALAR"
    },
    {
      "bufferView": 2,
      "byteOffset": 361200,
      "componentType": 5126,
      "count": 147,
      "max": [
        2958.948486328125,
        -2205.291259765625,
        43830.23828125
      ],
      "min": [
        -2500.132080078125,
        -7022.171875,
        7.499550980227809e-11
      ],
      "type": "VEC3"
    },
    {
      "bufferView": 2,
      "byteOffset": 362964,
      "componentType": 5126,
      "count": 147,
      "max": [
        0.9977788329124451,
        0.9396185278892517,
        0.07513407617807388
      ],
      "min": [
        -0.9974809885025024,
        -0.9865117073059082,
        -0.0740797147154808
      ],
      "type": "VEC3"
    },
    {
      "bufferView": 1,
      "byteOffset": 240800,
      "componentType": 5126,
      "count": 147,
      "max": [
        1597.1456298828125,
        16250.0283203125
      ],
      "min": [
        -2110.39111328125,
        -124.36082458496094
      ],
      "type": "VEC2"
    },
    {
      "bufferView": 1,
      "byteOffset": 241976,
      "componentType": 5126,
      "count": 147,
      "max": [
        1597.1456298828125,
        16250.0283203125
      ],
      "min": [
        -2110.39111328125,
        -124.36082458496094
      ],
      "type": "VEC2"
    },
    {
      "bufferView": 0,
      "byteOffset": 141564,
      "componentType": 5125,
      "count": 249,
      "type": "SCALAR"
    },
    {
      "bufferView": 2,
      "byteOffset": 364728,
      "componentType": 5126,
      "count": 64,
      "max": [
        2384.7919921875,
        -2399.81884765625,
        43730.75390625
      ],
      "min": [
        -2345.345458984375,
        -6815.17822265625,
        41617.8984375
      ],
      "type": "VEC3"
    },
    {
      "bufferView": 2,
      "byteOffset": 365496,
      "componentType": 5126,
      "count": 64,
      "max": [
        -0.18767628073692322,
        -0.410717636346817,
        0.8922149538993835
      ],
      "min": [
        -0.18818822503089905,
        -0.4107678532600403,
        0.8921301960945129
      ],
      "type": "VEC3"
    },
    {
      "bufferView": 1,
      "byteOffset": 243152,
      "componentType": 5126,
      "count": 64,
      "max": [
        1742.7982177734375,
        7032.23876953125
      ],
      "min": [
        -240.8730926513672,
        5190.85400390625
      ],
      "type": "VEC2"
    },
    {
      "bufferView": 0,
      "byteOffset": 142560,
      "componentType": 5125,
      "count": 180,
      "type": "SCALAR"
    },
    {
      "bufferView": 2,
      "byteOffset": 366264,
      "componentType": 5126,
      "count": 128,
      "max": [
        2429.7763671875,
        -2343.099853515625,
        43763.9140625
      ],
      "min": [
        -2390.278076171875,
        -6875.69091796875,
        41582.2578125
      ],
      "type": "VEC3"
    },
    {
      "bufferView": 2,
      "byteOffset": 367800,
      "componentType": 5126,
      "count": 128,
      "max": [
        -0.1876940131187439,
        -0.41070327162742615,
        0.8922021985054016
      ],
      "min": [
        -0.18820707499980927,
        -0.41079139709472656,
        0.8921222686767578
      ],
      "type": "VEC3"
    },
    {
      "bufferView": 1,
      "byteOffset": 243664,
      "componentType": 5126,
      "count": 128,
      "max": [
        1760.8212890625,
        7061.14013671875
      ],
      "min": [
        -258.8961486816406,
        5159.79443359375
      ],
      "type": "VEC2"
    },
    {
      "bufferView": 0,
      "byteOffset": 143280,
      "componentType": 5125,
      "count": 384,
      "type": "SCALAR"
    },
    {
      "bufferView": 2,
      "byteOffset": 369336,
      "componentType": 5126,
      "count": 175,
      "max": [
        3313.905029296875,
        4322.560546875,
        42764.60546875
      ],
      "min": [
        -6604.71875,
        -6694.7353515625,
        2310.604736328125
      ],
      "type": "VEC3"
    },
    {
      "bufferView": 2,
      "byteOffset": 371436,
      "componentType": 5126,
      "count": 175,
      "max": [
        0.9698720574378967,
        0.9698720574378967,
        1.0
      ],
      "min": [
        -0.969871997833252,
        -0.9698720574378967,
        -0.11760623753070831
      ],
      "type": "VEC3"
    },
    {
      "bufferView": 1,
      "byteOffset": 244688,
      "componentType": 5126,
      "count": 175,
      "max": [
        2783.632080078125,
        6845.33154296875
      ],
      "min": [
        -2297.682861328125,
        -2635.72265625
      ],
      "type": "VEC2"
    },
    {
      "bufferView": 0,
      "byteOffset": 144816,
      "componentType": 5125,
      "count": 363,
      "type": "SCALAR"
    },
    {
      "bufferView": 2,
      "byteOffset": 373536,
      "componentType": 5126,
      "count": 1005,
      "max": [
        7235.03955078125,
        7773.2109375,
        2767.8046875
      ],
      "min": [
        -7099.30859375,
        -2548.86083984375,
        7.392377682213791e-11
      ],
      "type": "VEC3"
    },
    {
      "bufferView": 2,
      "byteOffset": 385596,
      "componentType": 5126,
      "count": 1005,
      "max": [
        0.999981164932251,
        0.9999812245368958,
        1.0
      ],
      "min": [
        -0.9987634420394897,
        -0.9999812245368958,
        -1.0
      ],
      "type": "VEC3"
    },
    {
      "bufferView": 1,
      "byteOffset": 246088,
      "componentType": 5126,
      "count": 1005,
      "max": [
        2848.440673828125,
        3060.3193359375
      ],
      "min": [
        -2858.60986328125,
        -1003.4885864257813
      ],
      "type": "VEC2"
    },
    {
      "bufferView": 0,
      "byteOffset": 146268,
      "componentType": 5125,
      "count": 2133,
      "type": "SCALAR"
    },
    {
      "bufferView": 2,
      "byteOffset": 397656,
      "componentType": 5126,
      "count": 128,
      "max": [
        7112.873046875,
        7651.04443359375,
        2432.524658203125
      ],
      "min": [
        -6977.14208984375,
        -1973.273681640625,
        1853.40478515625
      ],
      "type": "VEC3"
    },
    {
      "bufferView": 2,
      "byteOffset": 399192,
      "componentType": 5126,
      "count": 128,
      "max": [
        0.0,
        0.0,
        1.0
      ],
      "min": [
        0.0,
        0.0,
        -1.0
      ],
      "type": "VEC3"
    },
    {
      "bufferView": 1,
      "byteOffset": 254128,
      "componentType": 5126,
      "count": 128,
      "max": [
        2800.34375,
        3012.22216796875
      ],
      "min": [
        -2746.90625,
        -776.87939453125
      ],
      "type": "VEC2"
    },
    {
      "bufferView": 0,
      "byteOffset": 154800,
      "componentType": 5125,
      "count": 330,
      "type": "SCALAR"
    },
    {
      "bufferView": 2,
      "byteOffset": 400728,
      "componentType": 5126,
      "count": 4,
      "max": [
        8116.89501953125,
        8053.57958984375,
        0.0
      ],
      "min": [
        -8117.0107421875,
        -8053.57275390625,
        0.0
      ],
      "type": "VEC3"
    },
    {
      "bufferView": 2,
      "byteOffset": 400776,
      "componentType": 5126,
      "count": 4,
      "max": [
        0.0,
        0.0,
        1.0
      ],
      "min": [
        0.0,
        0.0,
        0.9999999403953552
      ],
      "type": "VEC3"
    },
    {
      "bufferView": 1,
      "byteOffset": 255152,
      "componentType": 5126,
      "count": 4,
      "max": [
        0.6653786897659302,
        0.5009742975234985
      ],
      "min": [
        0.06614785641431808,
        0.20175455510616302
      ],
      "type": "VEC2"
    },
    {
      "bufferView": 1,
      "byteOffset": 255184,
      "componentType": 5126,
      "count": 4,
      "max": [
        0.6653786897659302,
        0.5009742975234985
      ],
      "min": [
        0.06614785641431808,
        0.20175455510616302
      ],
      "type": "VEC2"
    },
    {
      "bufferView": 0,
      "byteOffset": 156120,
      "componentType": 5125,
      "count": 6,
      "type": "SCALAR"
    },
    {
      "bufferView": 2,
      "byteOffset": 400824,
      "componentType": 5126,
      "count": 4,
      "max": [
        8116.89501953125,
        8053.57958984375,
        0.0
      ],
      "min": [
        -8117.0107421875,
        -8053.57275390625,
        0.0
      ],
      "type": "VEC3"
    },
    {
      "bufferView": 2,
      "byteOffset": 400872,
      "componentType": 5126,
      "count": 4,
      "max": [
        0.0,
        0.0,
        1.0
      ],
      "min": [
        0.0,
        0.0,
        0.9999999403953552
      ],
      "type": "VEC3"
    },
    {
      "bufferView": 1,
      "byteOffset": 255216,
      "componentType": 5126,
      "count": 4,
      "max": [
        3195.6279296875,
        3170.70068359375
      ],
      "min": [
        -3195.673583984375,
        -3170.697998046875
      ],
      "type": "VEC2"
    },
    {
      "bufferView": 0,
      "byteOffset": 156144,
      "componentType": 5125,
      "count": 6,
      "type": "SCALAR"
    }
  ],
  "asset": {
    "extras": {
      "author": "Void (https://sketchfab.com/Void.com)",
      "license": "CC-BY-4.0 (http://creativecommons.org/licenses/by/4.0/)",
      "source": "https://sketchfab.com/3d-models/wuhan-center-413eb58cc89c4423bf51ce63c2ab1393",
      "title": "Wuhan+ Center"
    },
    "generator": "Sketchfab-0.13.0",
    "version": "2.0"
  },
  "bufferViews": [
    {
      "buffer": 0,
      "byteLength": 156168,
      "name": "floatBufferViews",
      "target": 34963
    },
    {
      "buffer": 0,
      "byteLength": 255248,
      "byteOffset": 156168,
      "byteStride": 8,
      "name": "floatBufferViews",
      "target": 34962
    },
    {
      "buffer": 0,
      "byteLength": 400920,
      "byteOffset": 411416,
      "byteStride": 12,
      "name": "floatBufferViews",
      "target": 34962
    }
  ],
  "buffers": [
    {
      "byteLength": 812336,
      "uri": "scene.bin"
    }
  ],
  "images": [
    {
      "uri": "textures/TextureMaterial_baseColor.png"
    },
    {
      "uri": "textures/TextureMaterial_1_baseColor.png"
    },
    {
      "uri": "textures/TextureMaterial_10_baseColor.png"
    },
    {
      "uri": "textures/TextureMaterial_11_baseColor.png"
    },
    {
      "uri": "textures/TextureMaterial_12_baseColor.jpeg"
    },
    {
      "uri": "textures/TextureMaterial_13_baseColor.jpeg"
    },
    {
      "uri": "textures/TextureMaterial_2_baseColor.png"
    },
    {
      "uri": "textures/TextureMaterial_3_baseColor.png"
    },
    {
      "uri": "textures/TextureMaterial_4_baseColor.jpeg"
    },
    {
      "uri": "textures/TextureMaterial_5_baseColor.jpeg"
    },
    {
      "uri": "textures/TextureMaterial_6_baseColor.png"
    },
    {
      "uri": "textures/TextureMaterial_7_baseColor.png"
    },
    {
      "uri": "textures/TextureMaterial_8_baseColor.png"
    },
    {
      "uri": "textures/TextureMaterial_9_baseColor.png"
    },
    {
      "uri": "textures/TextureMaterial_14_baseColor.jpeg"
    },
    {
      "uri": "textures/TextureMaterial_15_baseColor.jpeg"
    },
    {
      "uri": "textures/TextureMaterial_16_baseColor.jpeg"
    },
    {
      "uri": "textures/TextureMaterial_0_baseColor.jpeg"
    }
  ],
  "materials": [
    {
      "name": "RGBAMaterial_033725491_033725491_033725491_100000000",
      "pbrMetallicRoughness": {
        "baseColorFactor": [
          0.337255,
          0.337255,
          0.337255,
          1.0
        ],
        "metallicFactor": 0.0,
        "roughnessFactor": 0.5
      }
    },
    {
      "name": "RGBAMaterial_055686277_055686277_055686277_100000000",
      "pbrMetallicRoughness": {
        "baseColorFactor": [
          0.556863,
          0.556863,
          0.556863,
          1.0
        ],
        "metallicFactor": 0.0,
        "roughnessFactor": 0.5
      }
    },
    {
      "name": "RGBAMaterial_066666669_066666669_066666669_100000000",
      "pbrMetallicRoughness": {
        "baseColorFactor": [
          0.666667,
          0.666667,
          0.666667,
          1.0
        ],
        "metallicFactor": 0.0,
        "roughnessFactor": 0.5
      }
    },
    {
      "name": "RGBAMaterial_088627452_088627452_088627452_100000000",
      "pbrMetallicRoughness": {
        "baseColorFactor": [
          0.886275,
          0.886275,
          0.886275,
          1.0
        ],
        "metallicFactor": 0.0,
        "roughnessFactor": 0.5
      }
    },
    {
      "name": "TextureMaterial",
      "pbrMetallicRoughness": {
        "baseColorTexture": {
          "index": 0
        },
        "metallicFactor": 0.0,
        "roughnessFactor": 0.5
      }
    },
    {
      "name": "TextureMaterial_1",
      "pbrMetallicRoughness": {
        "baseColorTexture": {
          "index": 1
        },
        "metallicFactor": 0.0,
        "roughnessFactor": 0.5
      }
    },
    {
      "name": "TextureMaterial_10",
      "pbrMetallicRoughness": {
        "baseColorTexture": {
          "index": 2
        },
        "metallicFactor": 0.0,
        "roughnessFactor": 0.5
      }
    },
    {
      "name": "TextureMaterial_11",
      "pbrMetallicRoughness": {
        "baseColorTexture": {
          "index": 3
        },
        "metallicFactor": 0.0,
        "roughnessFactor": 0.5
      }
    },
    {
      "name": "TextureMaterial_12",
      "pbrMetallicRoughness": {
        "baseColorTexture": {
          "index": 4
        },
        "metallicFactor": 0.0,
        "roughnessFactor": 0.5
      }
    },
    {
      "name": "TextureMaterial_13",
      "pbrMetallicRoughness": {
        "baseColorTexture": {
          "index": 5
        },
        "metallicFactor": 0.0,
        "roughnessFactor": 0.5
      }
    },
    {
      "name": "TextureMaterial_2",
      "pbrMetallicRoughness": {
        "baseColorTexture": {
          "index": 6
        },
        "metallicFactor": 0.0,
        "roughnessFactor": 0.5
      }
    },
    {
      "name": "TextureMaterial_3",
      "pbrMetallicRoughness": {
        "baseColorTexture": {
          "index": 7
        },
        "metallicFactor": 0.0,
        "roughnessFactor": 0.5
      }
    },
    {
      "name": "TextureMaterial_4",
      "pbrMetallicRoughness": {
        "baseColorTexture": {
          "index": 8
        },
        "metallicFactor": 0.0,
        "roughnessFactor": 0.5
      }
    },
    {
      "name": "TextureMaterial_5",
      "pbrMetallicRoughness": {
        "baseColorTexture": {
          "index": 9
        },
        "metallicFactor": 0.0,
        "roughnessFactor": 0.5
      }
    },
    {
      "name": "TextureMaterial_6",
      "pbrMetallicRoughness": {
        "baseColorTexture": {
          "index": 10
        },
        "metallicFactor": 0.0,
        "roughnessFactor": 0.5
      }
    },
    {
      "name": "TextureMaterial_7",
      "pbrMetallicRoughness": {
        "baseColorTexture": {
          "index": 11
        },
        "metallicFactor": 0.0,
        "roughnessFactor": 0.5
      }
    },
    {
      "name": "TextureMaterial_8",
      "pbrMetallicRoughness": {
        "baseColorTexture": {
          "index": 12
        },
        "metallicFactor": 0.0,
        "roughnessFactor": 0.5
      }
    },
    {
      "name": "TextureMaterial_9",
      "pbrMetallicRoughness": {
        "baseColorTexture": {
          "index": 13
        },
        "metallicFactor": 0.0,
        "roughnessFactor": 0.5
      }
    },
    {
      "name": "RGBAMaterial_064313728_069803923_073333335_100000000",
      "pbrMetallicRoughness": {
        "baseColorFactor": [
          0.643137,
          0.698039,
          0.733333,
          1.0
        ],
        "metallicFactor": 0.0,
        "roughnessFactor": 0.5
      }
    },
    {
      "name": "TextureMaterial_14",
      "pbrMetallicRoughness": {
        "baseColorTexture": {
          "index": 14
        },
        "metallicFactor": 0.0,
        "roughnessFactor": 0.5
      }
    },
    {
      "name": "TextureMaterial_15",
      "pbrMetallicRoughness": {
        "baseColorTexture": {
          "index": 15
        },
        "metallicFactor": 0.0,
        "roughnessFactor": 0.5
      }
    },
    {
      "name": "TextureMaterial_16",
      "pbrMetallicRoughness": {
        "baseColorTexture": {
          "index": 16
        },
        "metallicFactor": 0.0,
        "roughnessFactor": 0.5
      }
    },
    {
      "name": "TextureMaterial_0",
      "pbrMetallicRoughness": {
        "baseColorTexture": {
          "index": 17
        },
        "metallicFactor": 0.0,
        "roughnessFactor": 0.5
      }
    },
    {
      "name": "RGBAMaterial_064313728_069803923_073333335_100000000_0",
      "pbrMetallicRoughness": {
        "baseColorFactor": [
          0.643137,
          0.698039,
          0.733333,
          1.0
        ],
        "metallicFactor": 0.0,
        "roughnessFactor": 0.5
      }
    }
  ],
  "meshes": [
    {
      "name": "FrontSide_4",
      "primitives": [
        {
          "attributes": {
            "NORMAL": 1,
            "POSITION": 0,
            "TEXCOORD_0": 2,
            "TEXCOORD_1": 3
          },
          "indices": 4,
          "material": 4,
          "mode": 4
        }
      ]
    },
    {
      "name": "FrontSide_5",
      "primitives": [
        {
          "attributes": {
            "NORMAL": 6,
            "POSITION": 5,
            "TEXCOORD_0": 7,
            "TEXCOORD_1": 8
          },
          "indices": 9,
          "material": 5,
          "mode": 4
        }
      ]
    },
    {
      "name": "FrontSide_6",
      "primitives": [
        {
          "attributes": {
            "NORMAL": 11,
            "POSITION": 10,
            "TEXCOORD_0": 12,
            "TEXCOORD_1": 13
          },
          "indices": 14,
          "material": 6,
          "mode": 4
        }
      ]
    },
    {
      "name": "FrontSide_7",
      "primitives": [
        {
          "attributes": {
            "NORMAL": 16,
            "POSITION": 15,
            "TEXCOORD_0": 17,
            "TEXCOORD_1": 18
          },
          "indices": 19,
          "material": 7,
          "mode": 4
        }
      ]
    },
    {
      "name": "FrontSide_8",
      "primitives": [
        {
          "attributes": {
            "NORMAL": 21,
            "POSITION": 20,
            "TEXCOORD_0": 22,
            "TEXCOORD_1": 23
          },
          "indices": 24,
          "material": 8,
          "mode": 4
        }
      ]
    },
    {
      "name": "FrontSide_9",
      "primitives": [
        {
          "attributes": {
            "NORMAL": 26,
            "POSITION": 25,
            "TEXCOORD_0": 27,
            "TEXCOORD_1": 28
          },
          "indices": 29,
          "material": 9,
          "mode": 4
        }
      ]
    },
    {
      "name": "FrontSide_10",
      "primitives": [
        {
          "attributes": {
            "NORMAL": 31,
            "POSITION": 30,
            "TEXCOORD_0": 32,
            "TEXCOORD_1": 33
          },
          "indices": 34,
          "material": 10,
          "mode": 4
        }
      ]
    },
    {
      "name": "FrontSide_11",
      "primitives": [
        {
          "attributes": {
            "NORMAL": 36,
            "POSITION": 35,
            "TEXCOORD_0": 37,
            "TEXCOORD_1": 38
          },
          "indices": 39,
          "material": 11,
          "mode": 4
        }
      ]
    },
    {
      "name": "FrontSide_12",
      "primitives": [
        {
          "attributes": {
            "NORMAL": 41,
            "POSITION": 40,
            "TEXCOORD_0": 42,
            "TEXCOORD_1": 43
          },
          "indices": 44,
          "material": 12,
          "mode": 4
        }
      ]
    },
    {
      "name": "FrontSide_13",
      "primitives": [
        {
          "attributes": {
            "NORMAL": 46,
            "POSITION": 45,
            "TEXCOORD_0": 47,
            "TEXCOORD_1": 48
          },
          "indices": 49,
          "material": 13,
          "mode": 4
        }
      ]
    },
    {
      "name": "FrontSide_14",
      "primitives": [
        {
          "attributes": {
            "NORMAL": 51,
            "POSITION": 50,
            "TEXCOORD_0": 52,
            "TEXCOORD_1": 53
          },
          "indices": 54,
          "material": 14,
          "mode": 4
        }
      ]
    },
    {
      "name": "FrontSide_15",
      "primitives": [
        {
          "attributes": {
            "NORMAL": 56,
            "POSITION": 55,
            "TEXCOORD_0": 57,
            "TEXCOORD_1": 58
          },
          "indices": 59,
          "material": 15,
          "mode": 4
        }
      ]
    },
    {
      "name": "FrontSide_16",
      "primitives": [
        {
          "attributes": {
            "NORMAL": 61,
            "POSITION": 60,
            "TEXCOORD_0": 62,
            "TEXCOORD_1": 63
          },
          "indices": 64,
          "material": 16,
          "mode": 4
        }
      ]
    },
    {
      "name": "FrontSide_17",
      "primitives": [
        {
          "attributes": {
            "NORMAL": 66,
            "POSITION": 65,
            "TEXCOORD_0": 67,
            "TEXCOORD_1": 68
          },
          "indices": 69,
          "material": 17,
          "mode": 4
        }
      ]
    },
    {
      "name": "BackSide_2",
      "primitives": [
        {
          "attributes": {
            "NORMAL": 71,
            "POSITION": 70,
            "TEXCOORD_0": 72,
            "TEXCOORD_1": 73
          },
          "indices": 74,
          "material": 4,
          "mode": 4
        }
      ]
    },
    {
      "name": "BackSide_3",
      "primitives": [
        {
          "attributes": {
            "NORMAL": 76,
            "POSITION": 75,
            "TEXCOORD_0": 77,
            "TEXCOORD_1": 78
          },
          "indices": 79,
          "material": 19,
          "mode": 4
        }
      ]
    },
    {
      "name": "BackSide_4",
      "primitives": [
        {
          "attributes": {
            "NORMAL": 81,
            "POSITION": 80,
            "TEXCOORD_0": 82,
            "TEXCOORD_1": 83
          },
          "indices": 84,
          "material": 20,
          "mode": 4
        }
      ]
    },
    {
      "name": "BackSide_5",
      "primitives": [
        {
          "attributes": {
            "NORMAL": 86,
            "POSITION": 85,
            "TEXCOORD_0": 87,
            "TEXCOORD_1": 88
          },
          "indices": 89,
          "material": 21,
          "mode": 4
        }
      ]
    },
    {
      "name": "BackSide_6",
      "primitives": [
        {
          "attributes": {
            "NORMAL": 91,
            "POSITION": 90,
            "TEXCOORD_0": 92,
            "TEXCOORD_1": 93
          },
          "indices": 94,
          "material": 10,
          "mode": 4
        }
      ]
    },
    {
      "name": "BackSide_7",
      "primitives": [
        {
          "attributes": {
            "NORMAL": 96,
            "POSITION": 95,
            "TEXCOORD_0": 97,
            "TEXCOORD_1": 98
          },
          "indices": 99,
          "material": 12,
          "mode": 4
        }
      ]
    },
    {
      "name": "BackSide_8",
      "primitives": [
        {
          "attributes": {
            "NORMAL": 101,
            "POSITION": 100,
            "TEXCOORD_0": 102,
            "TEXCOORD_1": 103
          },
          "indices": 104,
          "material": 13,
          "mode": 4
        }
      ]
    },
    {
      "name": "BackSide_9",
      "primitives": [
        {
          "attributes": {
            "NORMAL": 106,
            "POSITION": 105,
            "TEXCOORD_0": 107,
            "TEXCOORD_1": 108
          },
          "indices": 109,
          "material": 15,
          "mode": 4
        }
      ]
    },
    {
      "name": "BackSide_10",
      "primitives": [
        {
          "attributes": {
            "NORMAL": 111,
            "POSITION": 110,
            "TEXCOORD_0": 112,
            "TEXCOORD_1": 113
          },
          "indices": 114,
          "material": 16,
          "mode": 4
        }
      ]
    },
    {
      "name": "BackSide_11",
      "primitives": [
        {
          "attributes": {
            "NORMAL": 116,
            "POSITION": 115,
            "TEXCOORD_0": 117,
            "TEXCOORD_1": 118
          },
          "indices": 119,
          "material": 17,
          "mode": 4
        }
      ]
    },
    {
      "name": "FrontSide_1",
      "primitives": [
        {
          "attributes": {
            "NORMAL": 121,
            "POSITION": 120,
            "TEXCOORD_0": 122
          },
          "indices": 123,
          "material": 1,
          "mode": 4
        }
      ]
    },
    {
      "name": "FrontSide_0",
      "primitives": [
        {
          "attributes": {
            "NORMAL": 125,
            "POSITION": 124,
            "TEXCOORD_0": 126
          },
          "indices": 127,
          "material": 0,
          "mode": 4
        }
      ]
    },
    {
      "name": "FrontSide_3",
      "primitives": [
        {
          "attributes": {
            "NORMAL": 129,
            "POSITION": 128,
            "TEXCOORD_0": 130
          },
          "indices": 131,
          "material": 3,
          "mode": 4
        }
      ]
    },
    {
      "name": "BackSide_0",
      "primitives": [
        {
          "attributes": {
            "NORMAL": 133,
            "POSITION": 132,
            "TEXCOORD_0": 134
          },
          "indices": 135,
          "material": 18,
          "mode": 4
        }
      ]
    },
    {
      "name": "FrontSide_2",
      "primitives": [
        {
          "attributes": {
            "NORMAL": 137,
            "POSITION": 136,
            "TEXCOORD_0": 138
          },
          "indices": 139,
          "material": 2,
          "mode": 4
        }
      ]
    },
    {
      "name": "FrontSide_0",
      "primitives": [
        {
          "attributes": {
            "NORMAL": 141,
            "POSITION": 140,
            "TEXCOORD_0": 142,
            "TEXCOORD_1": 143
          },
          "indices": 144,
          "material": 22,
          "mode": 4
        }
      ]
    },
    {
      "name": "BackSide_0",
      "primitives": [
        {
          "attributes": {
            "NORMAL": 146,
            "POSITION": 145,
            "TEXCOORD_0": 147
          },
          "indices": 148,
          "material": 23,
          "mode": 4
        }
      ]
    }
  ],
  "nodes": [
    {
      "children": [
        1
      ],
      "matrix": [
        1.0,
        0.0,
        0.0,
        0.0,
        0.0,
        2.220446049250313e-16,
        -1.0,
        0.0,
        0.0,
        1.0,
        2.220446049250313e-16,
        0.0,
        0.0,
        0.0,
        0.0,
        1.0
      ],
      "name": "Sketchfab_model"
    },
    {
      "children": [
        2
      ],
      "matrix": [
        0.009999999776482582,
        0.0,
        0.0,
        0.0,
        0.0,
        0.009999999776482582,
        0.0,
        0.0,
        0.0,
        0.0,
        0.009999999776482582,
        0.0,
        0.0,
        0.0,
        0.0,
        1.0
      ],
      "name": "USDRoot"
    },
    {
      "children": [
        3
      ],
      "name": "model"
    },
    {
      "children": [
        4,
        5,
        6,
        7,
        8,
        9,
        10,
        11,
        12,
        13,
        14,
        15,
        16,
        17,
        18,
        19,
        20,
        21,
        22,
        23,
        24,
        25,
        26,
        27,
        28,
        29,
        30,
        31,
        32,
        33
      ],
      "name": "Geom"
    },
    {
      "mesh": 0,
      "name": "FrontSide_4"
    },
    {
      "mesh": 1,
      "name": "FrontSide_5"
    },
    {
      "mesh": 2,
      "name": "FrontSide_6"
    },
    {
      "mesh": 3,
      "name": "FrontSide_7"
    },
    {
      "mesh": 4,
      "name": "FrontSide_8"
    },
    {
      "mesh": 5,
      "name": "FrontSide_9"
    },
    {
      "mesh": 6,
      "name": "FrontSide_10"
    },
    {
      "mesh": 7,
      "name": "FrontSide_11"
    },
    {
      "mesh": 8,
      "name": "FrontSide_12"
    },
    {
      "mesh": 9,
      "name": "FrontSide_13"
    },
    {
      "mesh": 10,
      "name": "FrontSide_14"
    },
    {
      "mesh": 11,
      "name": "FrontSide_15"
    },
    {
      "mesh": 12,
      "name": "FrontSide_16"
    },
    {
      "mesh": 13,
      "name": "FrontSide_17"
    },
    {
      "mesh": 14,
      "name": "BackSide_2"
    },
    {
      "mesh": 15,
      "name": "BackSide_3"
    },
    {
      "mesh": 16,
      "name": "BackSide_4"
    },
    {
      "mesh": 17,
      "name": "BackSide_5"
    },
    {
      "mesh": 18,
      "name": "BackSide_6"
    },
    {
      "mesh": 19,
      "name": "BackSide_7"
    },
    {
      "mesh": 20,
      "name": "BackSide_8"
    },
    {
      "mesh": 21,
      "name": "BackSide_9"
    },
    {
      "mesh": 22,
      "name": "BackSide_10"
    },
    {
      "mesh": 23,
      "name": "BackSide_11"
    },
    {
      "mesh": 24,
      "name": "FrontSide_1"
    },
    {
      "mesh": 25,
      "name": "FrontSide_0"
    },
    {
      "mesh": 26,
      "name": "FrontSide_3"
    },
    {
      "mesh": 27,
      "name": "BackSide_0"
    },
    {
      "mesh": 28,
      "name": "FrontSide_2"
    },
    {
      "children": [
        34,
        35
      ],
      "name": "Location_Snapshot"
    },
    {
      "mesh": 29,
      "name": "FrontSide_0"
    },
    {
      "mesh": 30,
      "name": "BackSide_0"
    }
  ],
  "samplers": [
    {
      "magFilter": 9729,
      "minFilter": 9987,
      "wrapS": 10497,
      "wrapT": 10497
    }
  ],
  "scene": 0,
  "scenes": [
    {
      "name": "Sketchfab_Scene",
      "nodes": [
        0
      ]
    }
  ],
  "textures": [
    {
      "sampler": 0,
      "source": 0
    },
    {
      "sampler": 0,
      "source": 1
    },
    {
      "sampler": 0,
      "source": 2
    },
    {
      "sampler": 0,
      "source": 3
    },
    {
      "sampler": 0,
      "source": 4
    },
    {
      "sampler": 0,
      "source": 5
    },
    {
      "sampler": 0,
      "source": 6
    },
    {
      "sampler": 0,
      "source": 7
    },
    {
      "sampler": 0,
      "source": 8
    },
    {
      "sampler": 0,
      "source": 9
    },
    {
      "sampler": 0,
      "source": 10
    },
    {
      "sampler": 0,
      "source": 11
    },
    {
      "sampler": 0,
      "source": 12
    },
    {
      "sampler": 0,
      "source": 13
    },
    {
      "sampler": 0,
      "source": 14
    },
    {
      "sampler": 0,
      "source": 15
    },
    {
      "sampler": 0,
      "source": 16
    },
    {
      "sampler": 0,
      "source": 17
    }
  ]
}
